<svg id="svg" version="1.1" xmlns="http://www.w3.org/2000/svg" xmlns:xlink="http://www.w3.org/1999/xlink" width="400" height="211.82065217391303" viewBox="0, 0, 400,211.82065217391303"><g id="svgg"><path id="path0" d="M0.000 62.499 L 0.000 125.000 16.083 125.000 L 32.167 125.000 32.186 109.292 C 32.197 100.652,32.236 93.733,32.274 93.917 C 32.382 94.436,33.493 99.045,34.082 101.417 C 34.241 102.058,34.432 102.930,34.506 103.353 C 34.579 103.776,34.796 104.628,34.986 105.245 C 35.177 105.863,35.333 106.512,35.333 106.688 C 35.333 106.863,35.479 107.549,35.658 108.212 C 36.290 110.558,36.708 112.260,36.842 113.032 C 36.916 113.462,37.087 114.212,37.222 114.699 C 37.580 115.991,38.014 117.796,38.197 118.750 C 38.285 119.208,38.492 120.071,38.657 120.667 C 38.822 121.263,39.133 122.481,39.347 123.375 L 39.736 125.000 52.278 125.000 L 64.820 125.000 65.003 124.292 C 65.104 123.902,65.217 123.471,65.254 123.333 C 65.291 123.196,65.363 122.821,65.413 122.500 C 65.463 122.179,65.658 121.204,65.845 120.333 C 66.032 119.462,66.327 118.075,66.499 117.250 C 66.672 116.425,66.999 114.888,67.226 113.833 C 67.454 112.779,67.803 111.092,68.003 110.083 C 68.202 109.075,68.539 107.462,68.750 106.500 C 68.961 105.537,69.297 103.925,69.496 102.917 C 70.533 97.665,70.466 97.064,70.484 111.792 L 70.500 125.000 86.583 125.000 L 102.667 125.000 102.667 62.500 L 102.667 0.000 81.028 -0.000 L 59.389 -0.000 59.101 1.708 C 58.663 4.310,58.197 7.012,57.757 9.500 C 57.539 10.737,57.200 12.688,57.004 13.833 C 56.809 14.979,56.504 16.704,56.326 17.667 C 56.148 18.629,55.964 19.717,55.917 20.083 C 55.869 20.450,55.682 21.575,55.501 22.583 C 55.320 23.592,54.979 25.542,54.743 26.917 C 54.507 28.292,54.173 30.204,54.002 31.167 C 53.655 33.117,53.126 36.265,52.826 38.167 C 52.560 39.845,52.392 40.114,52.255 39.077 C 52.195 38.622,52.004 37.575,51.829 36.750 C 51.263 34.069,50.962 32.599,50.808 31.750 C 50.639 30.822,50.198 28.606,49.681 26.083 C 49.493 25.167,49.297 24.117,49.245 23.750 C 49.192 23.383,49.004 22.504,48.825 21.796 C 48.646 21.088,48.501 20.338,48.503 20.129 C 48.504 19.921,48.358 19.075,48.179 18.250 C 47.713 16.110,47.053 12.919,46.834 11.750 C 46.256 8.657,45.993 7.288,45.761 6.167 C 45.369 4.263,44.859 1.671,44.713 0.833 L 44.582 0.083 22.291 0.041 L 0.000 -0.001 0.000 62.499 M202.667 11.185 L 202.667 22.369 202.208 22.252 C 201.741 22.132,201.197 22.043,198.250 21.607 C 192.651 20.777,186.694 21.343,182.417 23.110 C 180.726 23.808,178.229 25.156,178.000 25.494 C 177.954 25.561,177.823 25.647,177.709 25.683 C 176.513 26.068,172.167 31.278,172.167 32.327 C 172.167 32.399,172.016 32.798,171.832 33.214 C 170.877 35.373,170.917 33.673,170.917 72.417 C 170.917 110.085,170.908 109.620,171.687 111.833 C 171.864 112.337,172.005 112.807,172.000 112.878 C 171.984 113.083,173.526 115.943,173.904 116.411 C 174.094 116.646,174.550 117.215,174.917 117.676 C 175.507 118.417,177.787 120.466,178.522 120.917 C 178.672 121.008,179.197 121.347,179.689 121.669 C 180.798 122.395,180.948 122.479,182.750 123.379 C 186.309 125.156,194.940 126.747,198.196 126.226 C 198.956 126.104,198.957 126.125,198.225 127.114 C 198.010 127.406,197.833 127.682,197.833 127.728 C 197.833 127.775,197.496 128.305,197.083 128.908 C 196.671 129.510,196.333 130.073,196.333 130.158 C 196.333 130.244,196.270 130.353,196.193 130.400 C 196.116 130.448,196.048 130.153,196.041 129.744 C 195.983 125.914,189.547 124.992,186.204 128.335 C 185.825 128.714,185.469 129.169,185.413 129.346 C 185.357 129.522,185.245 129.667,185.164 129.667 C 184.602 129.667,182.168 135.999,181.673 138.750 C 181.591 139.208,181.368 140.221,181.179 141.000 C 180.990 141.779,180.835 142.616,180.835 142.859 C 180.831 144.037,180.189 146.449,179.686 147.172 C 177.882 149.767,177.400 150.403,176.875 150.883 C 176.669 151.072,176.500 151.281,176.500 151.348 C 176.500 151.635,172.555 155.333,172.249 155.333 C 172.186 155.333,171.936 155.470,171.692 155.637 C 169.518 157.127,167.383 156.504,165.918 153.951 C 165.666 153.511,165.487 153.131,165.521 153.107 C 165.657 153.008,168.569 151.072,168.816 150.917 C 170.929 149.586,177.167 143.243,177.167 142.425 C 177.167 142.386,177.485 141.877,177.875 141.293 C 178.584 140.231,178.948 139.635,179.172 139.167 C 179.238 139.029,179.445 138.617,179.632 138.250 C 182.515 132.600,181.623 126.629,177.667 125.105 C 175.997 124.462,172.348 124.746,170.187 125.687 C 164.223 128.284,160.560 131.997,157.054 139.000 L 155.844 141.417 155.383 140.375 C 154.986 139.479,154.500 138.992,154.500 139.489 C 154.500 139.575,154.162 140.139,153.750 140.741 C 153.337 141.344,153.000 141.873,153.000 141.918 C 153.000 141.963,152.719 142.389,152.375 142.866 C 152.031 143.343,151.450 144.197,151.083 144.764 C 150.415 145.797,149.054 147.771,148.794 148.083 C 148.718 148.175,148.123 148.962,147.473 149.833 C 144.022 154.450,139.830 158.979,136.000 162.224 C 135.862 162.340,135.337 162.730,134.833 163.090 C 134.329 163.450,133.892 163.802,133.861 163.872 C 133.831 163.942,133.744 164.000,133.670 164.000 C 133.595 164.000,133.132 164.270,132.642 164.601 C 129.260 166.880,124.507 168.135,122.750 167.214 C 122.567 167.118,122.202 166.938,121.940 166.815 C 117.915 164.923,116.770 155.097,119.519 146.048 C 119.692 145.479,119.833 144.927,119.833 144.821 C 119.833 144.584,121.226 140.555,121.702 139.417 C 123.099 136.073,126.136 130.178,127.498 128.167 C 127.591 128.029,127.887 127.567,128.155 127.139 C 128.709 126.254,128.650 126.269,132.316 126.086 C 134.481 125.978,134.426 125.826,132.852 127.583 C 132.067 128.460,130.167 130.802,130.167 130.893 C 130.167 130.950,129.840 131.428,129.440 131.956 C 128.594 133.075,127.280 134.988,127.116 135.340 C 127.053 135.474,126.785 135.958,126.521 136.417 C 126.032 137.264,125.338 138.645,124.723 140.000 C 121.710 146.630,128.827 154.132,134.404 150.203 C 135.747 149.258,138.167 146.995,138.167 146.685 C 138.167 146.583,138.230 146.500,138.307 146.500 C 138.551 146.500,142.534 141.539,143.417 140.135 C 143.508 139.989,144.012 139.226,144.535 138.439 C 145.059 137.652,145.621 136.771,145.785 136.482 C 145.949 136.193,146.158 135.835,146.250 135.686 C 146.342 135.537,146.715 134.890,147.079 134.249 C 147.443 133.608,147.871 132.858,148.030 132.583 C 148.510 131.752,150.434 127.838,151.062 126.417 L 151.651 125.083 160.411 125.040 L 169.171 124.997 169.127 83.290 L 169.083 41.583 168.618 39.521 C 168.363 38.386,168.044 37.246,167.910 36.987 C 167.776 36.728,167.667 36.415,167.667 36.291 C 167.667 35.906,166.439 33.390,165.695 32.250 C 164.238 30.017,161.608 27.411,159.640 26.250 C 155.636 23.888,151.917 22.553,147.774 21.991 C 140.754 21.038,136.118 20.976,129.885 21.749 C 123.874 22.496,117.050 24.774,114.498 26.887 C 114.257 27.087,113.802 27.437,113.488 27.667 C 112.037 28.724,109.469 31.579,108.689 33.000 C 107.454 35.252,106.919 36.642,106.221 39.417 L 105.760 41.250 105.755 54.667 L 105.750 68.083 112.062 68.127 C 118.745 68.173,118.888 68.194,117.333 68.888 C 117.196 68.950,116.746 69.262,116.333 69.583 C 115.921 69.904,115.471 70.219,115.333 70.283 C 114.108 70.850,110.252 74.372,108.983 76.083 C 105.084 81.340,104.835 82.639,104.838 97.750 C 104.840 111.534,104.943 112.411,107.053 116.634 C 107.342 117.213,107.710 117.805,107.872 117.952 C 108.034 118.098,108.167 118.286,108.167 118.369 C 108.167 118.645,110.553 121.080,111.370 121.638 C 111.579 121.781,111.787 121.940,111.833 121.992 C 112.010 122.192,113.294 122.953,114.250 123.424 C 114.800 123.695,115.278 123.932,115.312 123.951 C 115.346 123.969,114.914 124.665,114.353 125.497 C 113.792 126.329,113.333 127.050,113.333 127.099 C 113.333 127.148,113.164 127.428,112.958 127.719 C 112.751 128.011,112.492 128.400,112.382 128.583 C 112.113 129.031,111.168 130.630,110.807 131.250 C 110.420 131.913,107.362 138.067,106.997 138.917 C 106.027 141.177,105.925 141.447,104.923 144.417 C 102.127 152.705,101.544 161.098,103.343 167.178 C 103.521 167.781,103.667 168.363,103.667 168.472 C 103.667 168.675,103.948 169.335,104.931 171.444 C 108.401 178.884,116.535 183.022,124.333 181.314 C 126.831 180.767,127.066 180.705,128.064 180.340 C 129.300 179.888,132.179 178.470,133.167 177.827 C 133.579 177.558,134.026 177.286,134.159 177.222 C 134.293 177.157,134.518 177.011,134.659 176.897 C 134.801 176.783,135.517 176.242,136.250 175.694 C 139.708 173.110,144.651 167.974,147.417 164.093 C 147.600 163.835,147.902 163.428,148.088 163.187 C 148.274 162.947,148.649 162.412,148.921 162.000 C 149.193 161.587,149.462 161.212,149.519 161.167 C 149.672 161.043,152.167 157.187,152.167 157.075 C 152.167 157.021,152.336 156.739,152.542 156.447 C 153.048 155.733,153.283 155.351,153.615 154.708 C 153.992 153.979,154.104 154.024,154.233 154.958 C 154.462 156.628,154.526 156.951,154.849 158.083 C 155.998 162.114,157.786 165.116,160.233 167.125 C 162.880 169.299,167.471 169.682,171.187 168.038 C 171.588 167.861,172.029 167.669,172.167 167.611 C 172.423 167.504,173.243 167.001,174.099 166.424 C 176.048 165.112,180.833 160.016,180.833 159.252 C 180.833 159.217,181.171 158.695,181.583 158.092 C 181.996 157.490,182.335 156.941,182.337 156.873 C 182.339 156.806,182.476 156.574,182.642 156.358 L 182.944 155.966 183.416 156.941 C 185.809 161.891,189.759 163.492,192.216 160.508 C 192.773 159.832,195.667 153.897,195.667 153.432 C 195.667 153.376,195.807 153.012,195.979 152.623 C 196.152 152.235,196.449 151.542,196.641 151.083 L 196.989 150.250 197.006 151.417 C 197.045 154.162,197.908 156.640,199.462 158.473 C 203.251 162.938,208.902 160.833,212.803 153.503 C 213.121 152.906,213.471 152.304,213.580 152.167 C 213.689 152.029,213.927 151.617,214.109 151.250 C 214.291 150.883,214.920 149.647,215.508 148.502 L 216.576 146.420 216.774 148.103 C 217.456 153.916,220.513 156.901,225.036 156.169 C 228.020 155.686,230.544 153.802,234.041 149.445 C 234.495 148.880,236.000 146.824,236.000 146.769 C 236.000 146.742,236.487 145.982,237.082 145.079 C 237.677 144.177,238.207 143.302,238.260 143.136 C 238.409 142.666,238.582 142.771,238.999 143.582 C 242.007 149.431,248.566 150.944,255.167 147.312 C 256.683 146.477,259.378 144.016,260.980 142.000 C 261.454 141.404,261.911 140.830,261.995 140.725 C 262.252 140.405,264.598 136.768,264.721 136.500 C 264.784 136.362,264.981 136.012,265.158 135.721 C 265.664 134.888,267.166 132.049,268.184 130.000 C 268.480 129.404,269.609 127.154,270.693 125.000 C 271.777 122.846,272.722 120.911,272.793 120.700 C 272.904 120.369,275.280 119.058,275.454 119.232 C 275.480 119.258,275.268 119.910,274.984 120.681 C 274.699 121.452,274.409 122.308,274.339 122.583 C 274.269 122.858,274.060 123.608,273.874 124.250 C 272.478 129.084,273.192 135.524,275.446 138.417 C 276.104 139.262,277.567 140.667,277.790 140.667 C 277.905 140.667,278.000 140.733,278.000 140.814 C 278.000 141.000,279.509 141.606,280.517 141.824 C 283.187 142.402,286.639 140.179,289.083 136.308 C 289.175 136.163,289.665 135.415,290.172 134.647 C 290.678 133.879,291.186 133.063,291.300 132.833 C 291.414 132.604,291.685 132.117,291.903 131.750 C 292.764 130.300,294.894 126.135,296.591 122.583 C 297.861 119.926,297.853 120.291,296.732 116.250 C 296.605 115.792,296.427 115.042,296.336 114.583 C 295.755 111.659,295.365 110.905,294.930 111.863 C 294.792 112.168,294.476 112.754,294.228 113.167 C 293.980 113.579,293.612 114.217,293.410 114.583 C 293.209 114.950,292.685 115.850,292.248 116.583 C 291.810 117.317,291.302 118.179,291.119 118.500 C 290.936 118.821,290.665 119.279,290.518 119.519 C 290.371 119.758,290.030 120.321,289.760 120.769 C 287.972 123.744,285.594 127.032,284.752 127.695 L 284.348 128.012 284.091 127.514 C 283.505 126.381,283.910 122.756,284.931 119.996 C 285.152 119.398,285.333 118.850,285.333 118.778 C 285.333 118.481,286.754 115.460,287.110 115.000 C 288.923 112.660,289.577 109.222,288.612 107.104 C 288.367 106.566,288.167 106.062,288.167 105.985 C 288.167 105.709,287.156 104.257,286.595 103.729 C 284.672 101.915,282.833 101.755,278.958 103.066 C 277.071 103.704,276.536 103.874,275.750 104.085 C 275.292 104.209,274.785 104.360,274.625 104.423 C 274.382 104.517,274.333 104.440,274.333 103.959 C 274.333 102.263,271.792 100.915,270.125 101.727 C 269.848 101.862,269.833 101.049,269.833 85.851 L 269.833 69.833 285.750 69.833 L 301.667 69.833 301.661 54.292 C 301.654 36.083,301.543 34.380,300.241 32.381 C 300.108 32.178,300.000 31.922,300.000 31.813 C 300.000 31.704,299.813 31.369,299.583 31.069 C 299.354 30.768,299.167 30.477,299.167 30.421 C 299.167 30.254,297.920 28.634,297.228 27.901 C 296.029 26.632,292.681 24.167,292.157 24.167 C 292.054 24.167,291.779 24.017,291.545 23.833 C 291.312 23.650,291.033 23.500,290.925 23.500 C 290.817 23.500,290.340 23.313,289.865 23.083 C 289.390 22.854,288.898 22.667,288.771 22.667 C 288.644 22.667,288.286 22.560,287.974 22.430 C 284.486 20.972,276.811 20.891,270.792 22.247 C 269.981 22.429,269.833 22.427,269.833 22.231 C 269.833 22.036,267.336 22.000,253.583 22.000 L 237.333 22.000 237.333 60.098 L 237.333 98.196 236.810 97.756 C 236.522 97.514,236.072 97.273,235.810 97.220 L 235.333 97.125 235.333 48.563 L 235.333 0.000 219.000 0.000 L 202.667 0.000 202.667 11.185 M302.041 62.458 L 302.083 124.917 318.292 124.959 L 334.500 125.002 334.500 62.501 L 334.500 0.000 318.250 0.000 L 302.000 0.000 302.041 62.458 M367.667 11.185 L 367.667 22.369 367.208 22.252 C 366.757 22.136,366.474 22.090,363.000 21.566 C 358.619 20.906,353.396 21.241,349.250 22.449 C 347.724 22.893,344.296 24.408,344.194 24.683 C 344.164 24.765,344.046 24.833,343.932 24.833 C 343.612 24.833,341.161 26.688,340.417 27.493 C 340.050 27.890,339.581 28.367,339.375 28.554 C 339.169 28.741,339.000 28.992,339.000 29.113 C 339.000 29.234,338.936 29.333,338.857 29.333 C 338.498 29.333,337.044 32.175,336.385 34.167 L 335.917 35.583 335.869 71.417 C 335.840 93.220,335.884 107.870,335.980 108.833 C 336.390 112.934,338.309 116.492,341.889 119.790 C 343.147 120.950,346.639 122.964,349.250 124.036 C 353.426 125.751,359.421 126.549,364.741 126.098 C 367.884 125.832,370.865 125.082,373.322 123.939 C 374.352 123.460,374.367 123.463,374.926 124.347 L 375.338 125.000 387.669 125.000 L 400.000 125.000 400.000 62.500 L 400.000 0.000 383.833 0.000 L 367.667 0.000 367.667 11.185 M42.680 13.417 C 43.665 18.367,45.534 27.779,46.835 34.333 C 50.409 52.345,52.804 64.265,52.820 64.119 C 52.827 64.047,53.024 62.884,53.258 61.536 C 53.492 60.187,53.938 57.583,54.250 55.750 C 54.561 53.917,54.966 51.554,55.149 50.500 C 55.710 47.269,56.313 43.784,56.750 41.250 C 56.979 39.921,57.359 37.727,57.594 36.375 C 57.828 35.023,58.200 32.867,58.419 31.583 C 58.638 30.300,58.973 28.350,59.165 27.250 C 59.357 26.150,59.694 24.200,59.915 22.917 C 60.136 21.633,60.474 19.683,60.665 18.583 C 61.050 16.372,62.153 9.951,62.726 6.583 L 63.095 4.417 80.631 4.374 L 98.167 4.332 98.167 62.416 L 98.167 120.500 86.500 120.500 L 74.833 120.500 74.819 88.292 L 74.805 56.083 74.409 57.917 C 73.973 59.928,73.573 61.822,72.910 65.000 C 72.671 66.146,72.334 67.758,72.161 68.583 C 71.987 69.408,71.698 70.796,71.518 71.667 C 71.337 72.537,70.992 74.188,70.750 75.333 C 70.508 76.479,70.163 78.129,69.982 79.000 C 69.802 79.871,69.513 81.258,69.339 82.083 C 69.166 82.908,68.829 84.521,68.591 85.667 C 68.353 86.813,68.015 88.425,67.841 89.250 C 67.667 90.075,67.329 91.688,67.091 92.833 C 66.853 93.979,66.513 95.592,66.337 96.417 C 66.160 97.242,65.032 102.642,63.829 108.417 C 62.626 114.192,61.566 119.273,61.474 119.708 L 61.306 120.500 52.247 120.500 C 43.764 120.500,43.184 120.481,43.103 120.208 C 43.026 119.946,42.111 116.116,41.341 112.833 C 41.180 112.146,40.353 108.696,39.504 105.167 C 38.655 101.638,37.865 98.337,37.748 97.833 C 37.632 97.329,36.861 94.104,36.035 90.667 C 33.104 78.460,31.293 70.904,31.083 70.000 C 29.991 65.306,27.798 56.242,27.740 56.184 C 27.700 56.144,27.667 70.599,27.667 88.306 L 27.667 120.500 16.000 120.500 L 4.333 120.500 4.333 62.416 L 4.333 4.332 22.612 4.374 L 40.891 4.417 42.680 13.417 M230.833 51.465 L 230.833 98.596 230.081 99.225 C 228.476 100.566,226.450 103.927,225.447 106.909 L 225.057 108.069 223.222 108.670 C 217.573 110.520,215.879 112.526,214.254 119.292 C 213.811 121.139,213.243 121.079,211.910 119.042 C 211.385 118.240,210.939 117.563,210.918 117.538 C 210.898 117.513,210.222 117.907,209.415 118.413 C 208.095 119.242,207.856 119.334,207.016 119.337 C 205.928 119.341,204.972 119.727,203.925 120.585 C 201.926 122.223,193.577 122.271,188.220 120.676 C 181.244 118.598,176.980 114.836,175.665 109.598 C 175.137 107.497,175.145 37.780,175.674 35.762 C 176.652 32.030,179.413 29.174,183.859 27.298 C 189.779 24.800,199.972 25.241,205.608 28.240 L 207.000 28.980 207.000 16.657 L 207.000 4.333 218.917 4.333 L 230.833 4.333 230.833 51.465 M330.167 12.833 L 330.167 21.333 318.333 21.333 L 306.500 21.333 306.500 12.833 L 306.500 4.333 318.333 4.333 L 330.167 4.333 330.167 12.833 M395.667 62.417 L 395.667 120.500 386.700 120.500 L 377.733 120.500 376.764 118.993 L 375.795 117.487 375.356 117.778 C 371.235 120.512,367.638 121.640,362.583 121.783 C 351.055 122.109,341.996 116.925,340.486 109.136 C 339.995 106.602,339.991 38.623,340.482 36.244 C 341.724 30.227,347.889 26.122,356.268 25.733 C 361.869 25.473,367.751 26.554,370.879 28.417 C 371.417 28.738,371.889 29.000,371.929 29.000 C 371.968 29.000,372.000 23.450,372.000 16.667 L 372.000 4.333 383.833 4.333 L 395.667 4.333 395.667 62.417 M142.667 25.836 C 156.268 26.763,163.647 32.545,164.658 43.071 C 164.775 44.281,164.833 57.558,164.833 82.696 L 164.833 120.500 159.000 120.500 C 152.401 120.500,152.948 120.639,153.427 119.083 C 157.187 106.873,151.431 96.792,142.333 99.655 C 141.737 99.842,141.194 99.997,141.125 99.998 C 141.056 99.999,141.000 95.237,141.000 89.417 C 141.000 80.114,140.970 78.833,140.750 78.833 C 139.157 78.833,135.083 81.057,134.114 82.455 C 132.958 84.124,132.989 83.786,133.005 94.780 L 133.020 104.697 131.385 106.051 C 128.027 108.832,123.431 113.724,119.892 118.286 C 118.088 120.611,118.347 120.517,116.420 119.555 C 112.591 117.644,110.479 114.859,109.551 110.500 C 109.088 108.320,109.093 87.131,109.558 85.017 C 111.048 78.236,115.787 74.124,131.417 66.047 C 137.633 62.835,139.777 61.420,140.684 59.933 C 141.057 59.322,141.176 44.409,140.819 43.083 C 139.924 39.761,135.516 39.408,133.901 42.529 C 132.644 44.962,132.147 50.867,132.656 57.333 C 132.739 58.387,132.859 60.244,132.922 61.458 L 133.037 63.667 121.602 63.667 L 110.167 63.667 110.167 53.125 C 110.168 41.600,110.221 40.784,111.132 38.209 C 114.340 29.142,125.712 24.681,142.667 25.836 M282.833 25.839 C 288.717 26.459,294.010 29.698,296.082 33.947 C 297.275 36.393,297.246 35.966,297.248 51.500 L 297.250 65.417 285.417 65.417 L 273.583 65.417 273.500 54.417 C 273.418 43.583,273.411 43.405,273.056 42.637 C 272.061 40.483,268.097 40.023,266.381 41.864 C 265.451 42.860,265.500 40.997,265.500 75.229 L 265.500 106.750 264.571 108.833 C 264.060 109.979,263.540 111.142,263.415 111.417 L 263.188 111.917 263.175 111.333 C 262.969 102.187,250.120 103.610,242.735 113.596 C 242.232 114.277,241.786 114.833,241.743 114.833 C 241.701 114.833,241.667 94.921,241.667 70.583 L 241.667 26.333 253.583 26.333 L 265.500 26.333 265.500 27.817 L 265.500 29.301 266.805 28.517 C 270.475 26.311,276.986 25.223,282.833 25.839 M330.167 73.417 L 330.167 120.500 318.333 120.500 L 306.500 120.500 306.500 73.417 L 306.500 26.333 318.333 26.333 L 330.167 26.333 330.167 73.417 M201.669 40.592 C 200.647 40.877,199.978 41.425,199.443 42.417 L 199.083 43.083 199.083 73.754 L 199.083 104.426 199.509 105.253 C 200.654 107.477,204.887 107.867,206.300 105.879 C 207.031 104.851,207.017 105.525,206.966 73.321 L 206.917 42.559 206.469 41.883 C 205.642 40.633,203.548 40.070,201.669 40.592 M366.786 40.506 C 365.436 40.844,364.737 41.436,364.275 42.628 C 363.863 43.695,363.851 103.670,364.263 104.879 C 365.256 107.792,370.103 108.040,371.500 105.249 L 371.917 104.417 371.960 74.090 C 372.007 41.012,372.053 42.682,371.083 41.529 C 370.332 40.637,368.244 40.140,366.786 40.506 M235.557 99.018 C 236.714 99.545,236.607 100.676,235.031 104.568 L 233.730 107.784 235.256 107.704 C 238.579 107.530,238.861 108.190,237.335 112.583 C 235.390 118.185,233.830 119.997,230.175 120.899 C 228.133 121.403,228.476 121.094,227.840 123.000 C 224.373 133.389,224.537 144.379,228.160 144.379 C 229.991 144.379,234.027 139.868,237.578 133.853 C 237.653 133.726,237.736 132.638,237.763 131.436 C 238.009 120.564,246.012 108.994,254.583 107.121 C 258.279 106.313,260.099 106.850,261.096 109.045 C 263.656 114.675,256.757 125.734,247.083 131.510 C 246.258 132.002,245.556 132.422,245.523 132.443 C 245.356 132.549,246.385 135.104,246.917 135.906 C 249.451 139.724,253.616 139.226,258.283 134.546 C 261.465 131.356,263.016 129.052,266.811 121.880 C 266.989 121.543,266.950 121.481,266.376 121.188 C 263.006 119.469,263.367 113.731,267.256 107.191 C 269.933 102.688,272.874 101.778,272.608 105.534 C 272.525 106.698,272.548 107.018,272.709 106.957 C 272.823 106.913,274.379 106.410,276.167 105.838 C 277.954 105.266,279.867 104.646,280.417 104.460 C 281.994 103.928,283.584 103.890,284.499 104.363 C 285.923 105.099,287.381 107.772,287.401 109.686 C 287.412 110.687,287.518 110.439,285.048 115.189 C 280.122 124.665,281.944 134.316,287.382 127.552 C 288.809 125.777,293.158 118.931,294.494 116.357 C 294.606 116.141,294.761 116.029,294.838 116.107 C 294.985 116.257,295.833 119.539,295.833 119.958 C 295.833 120.280,291.981 128.062,290.573 130.583 C 285.511 139.650,281.897 141.989,278.105 138.651 C 273.783 134.847,273.937 126.736,278.517 117.017 C 278.966 116.064,279.333 115.267,279.333 115.247 C 279.333 115.226,278.340 115.716,277.125 116.336 C 275.910 116.955,274.204 117.781,273.333 118.170 L 271.750 118.878 268.500 125.434 C 260.753 141.059,257.006 145.646,250.667 147.264 C 245.618 148.553,240.513 145.041,239.078 139.292 C 238.908 138.610,238.804 138.699,237.918 140.292 C 231.514 151.802,225.385 156.703,221.192 153.666 C 218.705 151.864,217.712 145.870,218.774 139.083 L 218.879 138.417 218.300 139.167 C 217.982 139.579,217.248 140.929,216.668 142.167 C 210.044 156.321,206.499 160.468,202.555 158.677 C 198.228 156.713,197.680 149.521,201.026 138.606 C 201.388 137.426,201.648 136.426,201.605 136.383 C 201.562 136.340,200.590 138.205,199.445 140.527 C 197.454 144.566,196.691 146.289,193.995 152.833 C 191.975 157.737,190.700 160.038,189.892 160.241 C 187.986 160.720,185.345 157.639,183.738 153.065 L 183.263 151.713 181.969 154.025 C 172.826 170.357,160.740 172.051,156.620 157.579 C 154.462 150.002,156.618 141.129,162.382 133.867 C 168.143 126.608,177.682 123.967,179.246 129.198 C 181.145 135.549,174.138 146.187,164.458 151.650 C 163.931 151.948,163.500 152.210,163.500 152.232 C 163.500 154.953,166.672 158.167,169.357 158.167 C 173.416 158.167,181.724 149.898,182.334 145.250 C 183.938 133.052,187.313 127.240,192.263 128.155 C 195.185 128.695,195.035 130.018,190.962 139.583 C 189.275 143.545,188.879 145.072,189.107 146.733 C 189.241 147.710,189.374 147.698,189.817 146.669 C 194.810 135.060,202.501 122.914,205.915 121.243 C 207.049 120.688,207.621 120.890,208.714 122.232 C 211.269 125.368,211.373 128.067,209.125 132.833 C 205.774 139.940,205.046 147.333,207.699 147.333 C 209.834 147.333,215.973 137.674,220.039 127.917 C 221.009 125.589,222.348 121.959,222.267 121.878 C 222.117 121.728,218.950 122.164,217.476 122.537 C 215.051 123.152,214.887 122.151,216.583 117.083 C 218.095 112.564,219.380 111.420,224.667 109.886 C 226.385 109.387,226.319 109.455,226.995 107.500 C 229.054 101.551,232.854 97.787,235.557 99.018 M147.078 100.922 C 157.622 103.669,153.201 126.016,138.645 143.550 C 133.064 150.273,130.679 151.012,127.161 147.111 C 124.163 143.786,126.598 137.612,134.502 128.500 C 136.126 126.627,136.197 126.595,136.572 127.576 C 136.955 128.579,136.967 128.573,138.121 126.792 C 140.488 123.137,142.179 119.982,143.415 116.917 C 146.612 108.983,145.195 105.548,140.333 109.452 C 134.802 113.894,126.784 124.816,122.162 134.205 C 114.628 149.507,114.279 165.013,121.390 168.497 C 128.625 172.042,140.780 163.197,152.650 145.750 C 153.585 144.375,154.408 143.229,154.479 143.204 C 154.550 143.179,154.924 143.951,155.311 144.920 L 156.015 146.681 155.445 147.799 C 143.966 170.287,129.162 182.485,117.072 179.418 C 104.916 176.334,100.737 161.013,107.230 143.333 C 113.993 124.918,131.771 103.975,143.083 101.098 C 145.072 100.592,145.704 100.565,147.078 100.922 M237.333 104.917 C 237.333 106.007,237.215 106.184,236.701 105.858 C 236.528 105.749,236.556 105.529,236.838 104.777 C 237.285 103.580,237.333 103.593,237.333 104.917 M143.448 110.732 C 143.290 112.671,142.441 115.308,140.919 118.587 L 140.198 120.141 138.557 120.669 C 137.065 121.149,132.335 121.925,131.687 121.796 C 131.439 121.747,134.184 118.067,136.134 115.833 C 138.994 112.557,142.875 109.133,143.377 109.443 C 143.479 109.507,143.507 110.009,143.448 110.732 M254.189 112.757 C 250.814 114.222,246.777 120.495,245.187 126.744 C 244.756 128.438,244.628 128.466,246.933 126.365 C 252.990 120.845,256.431 115.485,255.440 113.115 C 255.158 112.438,255.016 112.398,254.189 112.757 M253.595 115.687 C 252.813 117.641,250.616 120.478,249.875 120.491 C 249.170 120.503,249.181 120.447,250.184 118.988 C 252.432 115.717,254.310 113.899,253.595 115.687 M262.739 118.917 C 262.868 119.467,263.025 120.048,263.088 120.208 C 263.191 120.472,263.067 120.500,261.783 120.500 L 260.365 120.500 261.266 118.727 C 261.761 117.751,262.176 116.833,262.187 116.685 C 262.198 116.537,262.274 116.754,262.356 117.167 C 262.438 117.579,262.611 118.367,262.739 118.917 M237.097 124.083 C 236.346 126.564,236.116 127.968,236.039 130.534 C 235.970 132.824,235.921 133.186,235.647 133.435 C 235.474 133.591,235.333 133.793,235.333 133.885 C 235.333 133.977,235.146 134.298,234.917 134.598 C 234.688 134.899,234.500 135.218,234.500 135.308 C 234.500 135.398,234.439 135.497,234.365 135.528 C 234.291 135.558,233.938 136.033,233.579 136.583 C 233.221 137.133,232.884 137.621,232.829 137.667 C 232.775 137.712,232.367 138.263,231.923 138.890 C 230.225 141.289,228.330 142.954,227.926 142.402 C 226.712 140.741,226.942 132.434,228.343 127.333 C 228.506 126.737,228.705 125.987,228.785 125.667 L 228.929 125.083 232.131 125.038 L 235.333 124.993 235.333 122.680 L 235.333 120.367 235.909 119.511 C 236.226 119.041,236.657 118.349,236.867 117.974 L 237.250 117.293 237.300 120.272 C 237.338 122.568,237.292 123.441,237.097 124.083 M219.167 125.163 C 219.167 125.253,218.985 125.721,218.763 126.205 C 218.541 126.688,218.007 127.908,217.576 128.917 C 217.145 129.925,216.534 131.303,216.218 131.978 C 215.902 132.654,215.574 133.366,215.489 133.562 C 215.403 133.757,215.127 134.269,214.875 134.700 C 214.623 135.131,214.079 136.064,213.667 136.774 C 212.498 138.786,212.392 138.956,210.697 141.583 C 209.724 143.093,208.000 145.333,207.813 145.333 C 207.382 145.333,208.407 139.430,209.183 137.436 C 209.357 136.988,209.500 136.521,209.500 136.398 C 209.500 136.275,209.684 135.779,209.910 135.295 C 212.133 130.529,212.564 129.132,212.462 127.029 C 212.423 126.234,212.333 125.452,212.261 125.292 C 212.139 125.019,212.360 125.000,215.649 125.000 C 217.830 125.000,219.167 125.062,219.167 125.163 M263.000 125.074 C 263.000 125.115,262.737 125.597,262.417 126.144 C 262.096 126.692,261.833 127.186,261.833 127.243 C 261.833 127.343,261.662 127.571,261.208 128.077 C 261.094 128.205,261.000 128.357,261.000 128.416 C 261.000 128.475,260.681 128.921,260.292 129.408 C 259.902 129.895,259.433 130.508,259.250 130.771 C 256.655 134.497,252.072 137.334,250.050 136.467 C 248.625 135.857,247.222 133.452,248.042 133.025 C 248.664 132.701,251.198 130.975,251.610 130.595 C 251.716 130.497,252.129 130.159,252.527 129.845 C 252.925 129.531,254.188 128.319,255.333 127.152 L 257.417 125.031 260.208 125.015 C 261.744 125.007,263.000 125.033,263.000 125.074 M308.477 130.272 C 307.500 130.816,307.250 131.288,307.250 132.591 C 307.250 133.918,307.447 134.142,309.467 135.112 C 310.981 135.838,311.018 135.870,310.968 136.387 C 310.891 137.184,309.748 137.253,308.903 136.510 C 307.620 135.384,306.280 136.343,307.111 137.791 C 308.318 139.893,312.461 139.553,313.322 137.281 C 313.910 135.729,313.168 134.548,311.011 133.604 C 309.689 133.026,309.500 132.885,309.500 132.476 C 309.500 131.895,310.226 131.737,310.946 132.162 C 312.422 133.033,313.617 132.329,312.838 131.048 C 312.112 129.855,309.926 129.465,308.477 130.272 M317.345 130.317 C 316.814 131.063,316.814 138.052,317.345 138.728 C 317.891 139.421,318.899 139.331,319.308 138.553 C 319.726 137.759,319.560 130.615,319.114 130.196 C 318.546 129.661,317.774 129.715,317.345 130.317 M323.667 130.167 C 323.352 130.481,323.333 130.722,323.333 134.463 C 323.333 138.995,323.375 139.167,324.484 139.167 C 325.546 139.167,325.667 138.887,325.667 136.422 L 325.667 134.287 326.125 134.887 C 326.377 135.217,326.771 135.756,327.000 136.086 C 327.229 136.417,327.492 136.777,327.583 136.887 C 327.675 136.998,328.010 137.462,328.327 137.919 C 329.327 139.360,330.400 139.666,330.921 138.658 C 331.404 137.725,331.209 130.572,330.690 130.152 C 329.414 129.119,328.667 130.006,328.666 132.554 L 328.666 134.583 328.291 134.129 C 328.085 133.879,327.729 133.407,327.500 133.079 C 325.203 129.793,324.542 129.291,323.667 130.167 M337.583 130.222 C 333.005 132.452,334.470 139.167,339.535 139.167 C 342.062 139.167,343.573 137.264,341.799 136.315 C 341.564 136.189,341.267 136.252,340.587 136.574 C 339.483 137.097,339.204 137.103,338.483 136.622 C 336.076 135.014,337.732 131.308,340.389 132.355 C 341.473 132.783,342.278 132.668,342.511 132.054 C 343.123 130.445,339.722 129.180,337.583 130.222 M346.706 130.006 C 346.089 130.254,346.000 130.843,346.004 134.636 C 346.009 139.407,345.758 139.066,349.306 139.136 C 352.246 139.195,352.500 139.104,352.500 137.989 C 352.500 137.183,352.073 137.000,350.195 137.000 L 348.500 137.000 348.500 136.250 L 348.500 135.500 349.542 135.497 C 350.694 135.495,350.855 135.431,351.159 134.854 C 351.551 134.110,350.944 133.593,349.608 133.534 L 348.500 133.485 348.500 132.758 L 348.500 132.030 350.256 131.974 C 352.183 131.911,352.326 131.836,352.331 130.884 C 352.335 129.974,351.927 129.832,349.338 129.844 C 348.098 129.850,346.913 129.923,346.706 130.006 M362.204 130.093 C 361.369 130.677,361.810 131.833,362.867 131.833 L 363.500 131.833 363.500 135.130 C 363.500 138.943,363.565 139.167,364.672 139.167 C 365.749 139.167,365.833 138.835,365.833 134.583 C 365.833 129.887,365.811 129.841,363.579 129.836 C 362.936 129.834,362.441 129.927,362.204 130.093 M371.417 130.109 C 368.955 131.403,369.240 135.180,371.842 135.752 C 372.466 135.889,372.462 135.917,371.667 136.917 C 370.992 137.764,370.863 138.267,371.173 138.844 C 371.433 139.332,372.587 139.296,372.852 138.792 C 372.961 138.585,373.095 138.379,373.150 138.333 C 373.205 138.287,373.549 137.800,373.914 137.250 C 374.280 136.700,374.618 136.212,374.666 136.167 C 377.610 133.351,374.892 128.283,371.417 130.109 M381.052 130.158 C 379.910 130.676,379.355 132.247,379.925 133.350 C 380.167 133.818,380.162 133.867,379.847 134.133 C 378.540 135.233,379.151 137.978,380.890 138.820 C 384.072 140.361,387.560 136.911,385.407 134.353 C 385.063 133.944,385.015 133.783,385.157 133.517 C 386.377 131.239,383.626 128.989,381.052 130.158 M391.083 130.110 C 388.610 131.412,389.252 135.833,391.914 135.833 C 392.217 135.833,392.076 136.185,391.549 136.750 C 390.307 138.081,390.455 139.273,391.845 139.137 C 392.404 139.082,392.714 138.705,394.970 135.333 C 396.994 132.308,394.156 128.493,391.083 130.110 M373.573 132.258 C 374.121 133.093,373.227 134.130,372.417 133.599 C 371.958 133.298,371.834 132.400,372.200 132.033 C 372.553 131.680,373.271 131.797,373.573 132.258 M382.903 131.934 C 383.292 132.084,383.236 132.789,382.825 132.919 C 382.217 133.112,381.763 132.470,382.200 132.033 C 382.427 131.806,382.531 131.792,382.903 131.934 M393.247 132.104 C 393.411 132.268,393.498 132.579,393.467 132.892 C 393.353 134.056,391.679 133.936,391.669 132.763 C 391.663 131.981,392.694 131.551,393.247 132.104 M171.583 132.815 C 168.281 134.714,164.457 141.042,163.088 146.875 C 162.783 148.175,162.789 148.172,165.719 145.331 C 171.041 140.174,173.891 135.939,173.626 133.585 C 173.471 132.217,172.960 132.024,171.583 132.815 M383.258 135.409 C 383.836 135.988,383.452 137.167,382.685 137.167 C 382.021 137.167,381.667 136.823,381.667 136.180 C 381.667 135.086,382.521 134.672,383.258 135.409 M171.013 136.148 C 170.823 136.416,170.667 136.677,170.667 136.729 C 170.667 136.896,169.591 138.412,169.375 138.550 C 169.260 138.623,169.167 138.747,169.167 138.826 C 169.167 138.904,168.949 139.219,168.684 139.526 C 168.418 139.832,167.893 140.444,167.517 140.885 C 167.141 141.326,166.833 141.641,166.833 141.586 C 166.833 141.038,169.425 137.157,170.688 135.814 C 171.306 135.156,171.545 135.402,171.013 136.148 M65.400 187.984 C 65.024 188.155,64.537 188.547,64.317 188.856 L 63.917 189.417 63.870 199.297 C 63.839 205.760,63.883 209.399,63.997 209.820 C 64.586 212.010,67.559 212.351,68.860 210.378 C 69.147 209.944,69.165 209.311,69.166 199.631 L 69.167 189.345 68.666 188.774 C 67.711 187.687,66.630 187.426,65.400 187.984 M152.890 187.994 C 151.849 188.256,150.609 188.786,149.167 189.583 C 148.486 189.959,145.667 192.780,145.667 193.085 C 145.667 193.134,145.493 193.453,145.281 193.795 C 143.158 197.213,143.442 202.944,145.917 206.667 C 149.072 211.413,156.632 213.244,161.295 210.391 C 163.118 209.276,164.536 207.997,165.451 206.641 C 171.622 197.495,163.432 185.337,152.890 187.994 M234.641 187.963 C 233.786 188.366,233.352 188.980,232.430 191.083 C 231.988 192.092,231.403 193.404,231.130 194.000 C 230.857 194.596,230.536 195.308,230.417 195.583 C 230.298 195.858,229.997 196.533,229.749 197.083 C 229.501 197.633,229.234 198.233,229.157 198.417 C 229.079 198.600,228.075 200.857,226.925 203.433 C 225.772 206.015,224.790 208.445,224.737 208.850 C 224.344 211.827,228.391 212.862,229.717 210.124 C 230.372 208.770,230.791 207.808,231.022 207.125 L 231.234 206.500 235.620 206.500 L 240.005 206.500 240.269 207.125 C 242.054 211.354,242.319 211.667,244.118 211.667 C 246.672 211.667,247.277 209.609,245.683 206.347 C 245.317 205.598,244.966 204.820,244.903 204.618 C 244.841 204.415,244.474 203.575,244.089 202.750 C 243.704 201.925,242.506 199.262,241.428 196.833 C 240.349 194.404,239.174 191.794,238.817 191.032 C 238.459 190.270,238.164 189.558,238.160 189.449 C 238.121 188.302,235.905 187.366,234.641 187.963 M295.831 188.059 C 285.227 190.867,283.684 205.516,293.468 210.484 C 297.574 212.570,302.796 212.005,306.311 209.096 C 307.516 208.098,308.915 206.336,309.430 205.167 C 309.572 204.846,309.807 204.323,309.953 204.004 C 311.371 200.907,310.608 195.438,308.337 192.417 C 307.909 191.847,305.810 189.842,305.414 189.624 C 301.838 187.658,299.058 187.204,295.831 188.059 M325.756 188.032 C 321.868 189.164,319.932 192.635,321.107 196.365 C 321.679 198.181,323.476 199.593,327.000 200.995 C 331.143 202.644,332.449 204.117,331.241 205.779 C 329.859 207.682,326.892 207.548,324.884 205.492 C 322.723 203.279,320.099 203.742,320.121 206.333 C 320.165 211.426,330.658 213.697,334.750 209.500 C 335.025 209.218,335.387 208.859,335.553 208.702 C 336.905 207.430,337.370 204.014,336.447 202.129 C 335.558 200.314,331.731 197.796,328.500 196.900 C 326.031 196.216,325.362 193.445,327.453 192.560 C 328.631 192.062,329.969 192.349,331.192 193.361 C 334.538 196.133,337.610 192.841,334.443 189.877 C 332.293 187.865,328.843 187.132,325.756 188.032 M81.559 188.090 C 80.289 188.647,80.333 188.227,80.333 199.606 L 80.333 209.756 80.744 210.361 C 81.656 211.703,83.169 212.054,84.453 211.222 C 85.572 210.496,85.574 210.486,85.667 204.833 L 85.750 199.750 86.098 200.417 C 86.290 200.783,86.845 201.833,87.332 202.750 C 87.819 203.667,88.502 204.962,88.849 205.629 C 91.238 210.218,91.573 210.608,93.083 210.561 C 94.449 210.518,94.874 210.085,96.350 207.226 C 96.911 206.139,97.734 204.575,98.180 203.750 C 98.625 202.925,99.273 201.688,99.620 201.000 L 100.250 199.750 100.333 204.750 C 100.426 210.297,100.435 210.345,101.519 211.142 C 102.811 212.092,104.658 211.663,105.417 210.236 C 105.739 209.629,105.750 209.289,105.750 199.513 L 105.750 189.417 105.362 188.872 C 104.048 187.030,101.707 187.593,100.301 190.089 C 99.906 190.791,99.421 191.639,99.223 191.974 C 99.025 192.309,98.624 193.033,98.331 193.583 C 98.039 194.133,97.741 194.658,97.669 194.750 C 97.597 194.842,97.218 195.517,96.827 196.250 C 96.436 196.983,96.046 197.674,95.961 197.784 C 95.875 197.894,95.675 198.232,95.516 198.534 C 95.357 198.836,95.053 199.383,94.841 199.750 C 94.628 200.117,94.193 200.904,93.873 201.500 C 93.017 203.095,92.989 203.117,92.659 202.470 C 92.504 202.165,92.179 201.579,91.938 201.167 C 91.697 200.754,91.386 200.192,91.247 199.917 C 91.109 199.642,90.776 199.042,90.508 198.583 C 90.240 198.125,89.879 197.487,89.705 197.167 C 89.532 196.846,89.239 196.321,89.056 196.000 C 88.330 194.734,87.763 193.723,87.465 193.167 C 87.294 192.846,86.974 192.283,86.755 191.917 C 86.536 191.550,86.216 190.987,86.043 190.667 C 85.451 189.564,85.249 189.249,84.833 188.778 C 84.047 187.887,82.679 187.599,81.559 188.090 M118.667 188.090 C 118.162 188.247,117.753 188.529,117.417 188.953 L 116.917 189.583 116.865 199.500 C 116.829 206.228,116.870 209.613,116.992 210.026 C 117.501 211.758,120.037 212.336,121.353 211.020 L 122.000 210.373 122.000 206.955 L 122.000 203.538 124.875 203.456 C 130.177 203.306,132.630 201.962,134.136 198.386 C 134.641 197.186,134.656 194.278,134.163 193.190 C 133.982 192.791,133.833 192.392,133.833 192.304 C 133.833 191.293,130.418 188.537,128.804 188.246 C 126.157 187.769,120.002 187.674,118.667 188.090 M180.315 188.045 C 179.487 188.327,178.790 188.970,178.542 189.678 C 178.250 190.512,178.240 209.431,178.531 210.117 C 179.023 211.276,179.627 211.667,180.927 211.667 C 183.258 211.667,183.667 210.910,183.667 206.590 L 183.667 203.500 184.991 203.500 L 186.315 203.500 187.444 204.958 C 188.065 205.760,188.670 206.477,188.787 206.550 C 188.904 206.623,189.000 206.761,189.000 206.857 C 189.000 206.952,189.181 207.229,189.402 207.473 C 189.623 207.717,190.420 208.691,191.174 209.637 C 192.828 211.715,193.667 212.106,195.000 211.417 C 196.898 210.435,196.624 207.751,194.438 205.917 C 194.203 205.720,191.953 203.012,191.770 202.705 C 191.685 202.564,191.813 202.422,192.154 202.279 C 196.483 200.459,197.387 193.792,193.777 190.314 C 191.676 188.289,190.601 187.994,185.000 187.905 C 182.056 187.858,180.749 187.897,180.315 188.045 M205.977 188.054 C 204.336 188.584,203.861 190.661,205.097 191.897 C 205.789 192.589,206.167 192.667,208.854 192.667 L 211.000 192.667 211.000 201.272 C 211.000 209.684,211.008 209.890,211.345 210.436 C 212.554 212.392,215.678 212.056,216.172 209.917 C 216.256 209.550,216.327 205.519,216.329 200.958 L 216.333 192.667 218.656 192.667 C 219.933 192.667,221.185 192.588,221.437 192.492 C 223.421 191.738,223.372 188.630,221.366 188.029 C 220.453 187.756,206.833 187.778,205.977 188.054 M258.860 188.060 C 256.874 188.591,256.835 188.815,256.834 199.731 C 256.833 210.918,256.850 210.999,259.284 211.509 C 261.773 212.029,268.610 211.388,270.135 210.491 C 270.438 210.313,270.753 210.167,270.835 210.167 C 271.015 210.167,272.476 209.212,272.856 208.846 C 273.005 208.701,273.362 208.397,273.647 208.168 C 273.933 207.940,274.167 207.659,274.167 207.543 C 274.167 207.428,274.239 207.333,274.328 207.333 C 274.492 207.333,275.667 205.603,275.667 205.361 C 275.667 205.289,275.821 204.909,276.010 204.518 C 277.333 201.780,276.874 195.170,275.233 193.320 C 275.105 193.175,275.000 192.971,275.000 192.865 C 275.000 192.579,272.495 190.121,271.917 189.840 C 271.642 189.707,271.316 189.523,271.194 189.433 C 269.487 188.174,261.682 187.305,258.860 188.060 M128.019 192.980 C 129.011 193.662,129.243 194.118,129.307 195.511 C 129.428 198.105,128.324 198.833,124.272 198.833 L 122.000 198.833 122.000 195.647 L 122.000 192.461 124.727 192.527 C 127.252 192.588,127.496 192.621,128.019 192.980 M188.642 192.675 C 190.428 193.087,191.343 194.843,190.751 196.724 C 190.226 198.393,189.221 198.827,185.875 198.831 L 183.667 198.833 183.667 195.667 L 183.667 192.500 185.792 192.504 C 186.960 192.506,188.243 192.583,188.642 192.675 M268.167 193.075 C 270.539 194.267,271.418 196.050,271.414 199.667 C 271.409 204.874,269.272 207.000,264.045 207.000 L 262.167 207.000 262.167 199.728 L 262.167 192.455 264.708 192.535 C 267.069 192.608,267.315 192.647,268.167 193.075 M157.417 192.935 C 157.783 193.074,158.228 193.233,158.405 193.288 C 159.260 193.553,160.738 195.148,161.380 196.498 C 161.875 197.537,161.897 197.676,161.900 199.750 L 161.904 201.917 161.273 203.110 C 158.893 207.607,152.894 207.962,150.426 203.751 C 147.218 198.276,152.002 190.875,157.417 192.935 M301.085 193.103 C 302.133 193.595,303.667 194.794,303.667 195.122 C 303.667 195.181,303.808 195.383,303.981 195.573 C 305.086 196.783,305.455 199.910,304.753 202.116 C 303.153 207.140,297.048 208.341,293.904 204.250 C 292.006 201.780,292.120 197.163,294.134 194.958 C 295.329 193.649,295.769 193.356,297.333 192.819 C 298.031 192.580,300.344 192.755,301.085 193.103 M236.000 196.933 C 236.000 197.058,236.198 197.592,236.440 198.121 C 237.370 200.155,237.500 200.458,237.506 200.602 C 237.509 200.683,237.656 201.050,237.833 201.417 C 238.010 201.783,238.158 202.140,238.161 202.208 C 238.164 202.277,237.042 202.333,235.667 202.333 C 234.157 202.333,233.167 202.269,233.167 202.171 C 233.167 202.082,233.309 201.688,233.483 201.296 C 234.417 199.192,235.325 197.037,235.420 196.700 C 235.537 196.284,236.000 196.470,236.000 196.933 " stroke="none" fill="#f3f2eb" fill-rule="evenodd"></path><path id="path1" d="M233.251 99.189 C 230.426 100.334,228.367 103.374,226.421 109.271 C 226.387 109.375,225.810 109.620,225.138 109.816 C 219.332 111.509,218.073 112.632,216.521 117.500 C 214.958 122.401,215.142 123.010,217.977 122.330 C 219.287 122.016,222.270 121.659,222.410 121.799 C 222.585 121.974,219.554 129.420,217.784 133.167 C 215.460 138.084,210.255 146.066,208.684 147.120 C 205.132 149.504,205.197 141.382,208.794 133.417 C 210.980 128.576,211.158 126.913,209.799 124.037 C 209.133 122.626,207.604 121.000,206.944 121.000 C 203.932 121.000,195.940 132.937,190.236 145.953 C 189.344 147.988,189.260 148.090,189.104 147.312 C 188.787 145.724,189.148 143.621,190.131 141.333 C 194.621 130.892,195.023 129.184,193.162 128.470 C 188.045 126.509,184.575 131.655,182.574 144.174 L 182.136 146.917 181.258 148.250 C 174.444 158.596,167.444 161.236,164.278 154.652 C 163.506 153.047,163.332 152.076,163.791 151.930 C 165.233 151.472,170.185 147.658,172.512 145.213 C 180.644 136.668,182.055 126.503,175.096 126.603 C 164.431 126.756,153.940 142.540,156.152 155.105 C 157.946 165.295,163.882 169.549,171.250 165.927 C 174.988 164.090,178.615 159.975,182.167 153.543 C 183.228 151.621,183.395 151.478,183.582 152.328 C 184.367 155.902,187.336 159.937,189.321 160.128 C 190.599 160.251,191.739 158.302,194.739 150.867 C 197.146 144.904,201.623 135.452,201.796 135.970 C 201.827 136.064,201.591 136.991,201.272 138.029 C 197.673 149.730,198.190 156.656,202.817 158.712 C 206.509 160.353,210.020 156.138,216.555 142.217 C 217.487 140.233,218.787 138.065,218.949 138.227 C 218.973 138.250,218.877 139.165,218.736 140.260 C 217.333 151.150,220.871 156.779,227.076 153.530 C 230.094 151.949,235.210 145.506,238.315 139.375 C 238.755 138.506,238.873 138.494,239.152 139.292 C 243.198 150.816,253.410 150.226,261.627 137.992 C 263.300 135.501,264.383 133.501,268.259 125.750 C 271.263 119.742,271.740 118.883,272.213 118.635 C 273.158 118.139,279.315 115.167,279.398 115.167 C 279.441 115.167,279.103 115.959,278.646 116.927 C 274.186 126.384,273.838 134.019,277.682 138.084 C 282.251 142.915,286.301 139.393,293.850 124.028 L 295.842 119.972 295.510 118.694 C 295.327 117.992,295.095 117.092,294.995 116.695 L 294.813 115.973 293.466 118.278 C 287.349 128.741,285.024 131.165,283.024 129.165 C 280.953 127.094,282.139 120.211,285.667 113.833 C 287.699 110.160,287.776 109.358,286.363 106.559 C 284.905 103.670,283.777 103.491,278.221 105.266 C 276.312 105.876,274.198 106.548,273.523 106.759 L 272.297 107.142 272.386 106.696 C 273.215 102.540,271.014 102.098,268.219 105.860 C 263.554 112.140,262.881 119.887,266.871 121.383 C 267.021 121.439,266.845 121.922,266.274 123.023 C 259.471 136.142,252.124 141.552,247.555 136.805 C 246.348 135.550,245.128 132.619,245.680 132.299 C 251.215 129.098,255.375 125.250,258.387 120.547 C 263.011 113.327,262.469 106.833,257.241 106.833 C 248.011 106.833,238.350 118.926,237.884 131.063 L 237.782 133.709 235.988 136.412 C 231.523 143.139,229.071 145.304,227.207 144.168 C 224.481 142.505,224.727 131.939,227.694 123.237 L 228.381 121.223 229.982 120.860 C 233.596 120.041,234.885 118.679,236.886 113.570 C 238.845 108.567,238.641 107.736,235.464 107.769 C 234.476 107.779,233.667 107.767,233.667 107.742 C 233.667 107.717,234.045 106.771,234.508 105.640 C 236.334 101.174,236.402 100.953,236.234 100.058 C 236.020 98.916,234.800 98.561,233.251 99.189 M143.000 101.180 C 130.628 104.592,111.668 128.092,106.167 146.833 C 101.849 161.542,104.922 173.734,114.083 178.248 C 126.372 184.302,141.945 173.025,154.883 148.705 L 155.946 146.707 155.468 145.504 C 155.206 144.842,154.881 144.038,154.747 143.717 L 154.503 143.134 153.228 145.025 C 143.652 159.217,134.640 167.476,126.967 169.090 C 114.580 171.696,112.426 152.811,122.820 132.750 C 129.663 119.545,141.354 106.003,144.265 107.911 C 146.698 109.505,143.987 118.014,138.276 126.708 C 136.908 128.790,136.982 128.751,136.505 127.640 L 136.135 126.781 135.192 127.832 C 129.572 134.102,125.646 140.910,125.867 144.002 C 126.041 146.448,129.052 149.500,131.289 149.500 C 135.523 149.500,146.564 134.026,150.770 122.199 C 155.529 108.816,151.808 98.750,143.000 101.180 M255.520 112.958 C 256.429 115.294,253.921 119.582,248.560 124.856 C 245.682 127.688,244.833 128.437,244.835 128.144 C 244.844 126.223,247.112 120.628,249.042 117.764 C 251.702 113.815,254.924 111.426,255.520 112.958 M173.462 132.667 C 174.250 134.153,173.016 137.187,170.208 140.667 C 167.889 143.541,162.967 148.311,162.864 147.784 C 162.728 147.085,164.163 142.796,165.274 140.583 C 167.924 135.301,172.509 130.868,173.462 132.667 " stroke="none" fill="#c41c24" fill-rule="evenodd"></path><path id="path2" d="M4.333 62.333 L 4.333 120.333 15.917 120.333 L 27.500 120.333 27.500 87.883 C 27.500 70.036,27.563 55.505,27.641 55.592 C 27.779 55.747,28.063 56.815,28.902 60.333 C 29.131 61.296,29.547 63.040,29.826 64.208 C 30.105 65.377,30.562 67.290,30.840 68.458 C 31.456 71.037,32.006 73.335,32.566 75.667 C 32.797 76.629,33.214 78.373,33.493 79.542 C 33.772 80.710,34.229 82.623,34.509 83.792 C 34.789 84.960,35.242 86.854,35.516 88.000 C 35.791 89.146,36.161 90.683,36.340 91.417 C 36.519 92.150,36.932 93.875,37.258 95.250 C 38.082 98.722,38.606 100.915,39.168 103.250 C 39.995 106.682,40.826 110.164,41.358 112.417 C 41.639 113.608,42.001 115.108,42.162 115.750 C 42.324 116.392,42.635 117.685,42.853 118.625 L 43.250 120.334 52.239 120.292 L 61.228 120.250 61.530 118.833 C 61.696 118.054,62.024 116.479,62.260 115.333 C 62.496 114.188,62.763 112.922,62.852 112.520 C 63.029 111.729,64.368 105.312,64.752 103.417 C 64.881 102.775,65.218 101.162,65.500 99.833 C 66.062 97.181,66.713 94.062,67.082 92.250 C 67.213 91.608,67.551 89.996,67.834 88.667 C 68.116 87.337,68.454 85.725,68.584 85.083 C 68.714 84.442,69.051 82.829,69.334 81.500 C 69.616 80.171,69.953 78.558,70.081 77.917 C 70.210 77.275,70.547 75.662,70.831 74.333 C 71.114 73.004,71.452 71.392,71.581 70.750 C 71.711 70.108,72.011 68.683,72.248 67.583 C 72.486 66.483,72.823 64.871,72.998 64.000 C 73.173 63.129,73.511 61.517,73.748 60.417 C 73.985 59.317,74.301 57.763,74.450 56.965 C 74.598 56.166,74.783 55.552,74.860 55.600 C 74.937 55.647,75.000 70.232,75.000 88.010 L 75.000 120.333 86.583 120.333 L 98.167 120.333 98.167 62.333 L 98.167 4.333 80.667 4.333 C 63.479 4.333,63.167 4.339,63.167 4.656 C 63.167 4.833,62.981 6.014,62.753 7.281 C 62.299 9.813,61.898 12.117,61.251 15.917 C 61.017 17.292,60.680 19.242,60.501 20.250 C 60.323 21.258,59.986 23.208,59.752 24.583 C 59.078 28.540,58.249 33.360,57.601 37.083 C 57.378 38.367,57.034 40.354,56.837 41.500 C 56.639 42.646,56.302 44.596,56.087 45.833 C 55.872 47.071,55.535 49.021,55.337 50.167 C 55.140 51.313,54.836 53.075,54.660 54.083 C 54.485 55.092,54.151 57.042,53.917 58.417 C 53.092 63.272,52.841 64.563,52.741 64.464 C 52.709 64.431,52.267 62.307,51.759 59.744 C 51.252 57.181,50.692 54.371,50.515 53.500 C 49.924 50.596,49.502 48.472,47.998 40.833 C 47.177 36.662,46.352 32.500,46.164 31.583 C 45.976 30.667,44.965 25.567,43.917 20.250 C 42.868 14.933,41.862 9.871,41.681 9.000 C 41.499 8.129,41.218 6.723,41.056 5.875 L 40.762 4.333 22.548 4.333 L 4.333 4.333 4.333 62.333 M207.167 16.750 C 207.167 23.579,207.134 29.167,207.094 29.167 C 207.055 29.167,206.656 28.939,206.209 28.661 C 201.664 25.836,191.362 24.924,185.526 26.830 C 180.655 28.421,177.404 31.173,176.035 34.866 L 175.583 36.083 175.583 72.667 L 175.583 109.250 176.050 110.608 C 178.357 117.326,186.514 121.667,196.851 121.679 C 200.919 121.684,202.708 121.349,204.095 120.325 C 205.220 119.493,206.314 119.093,207.107 119.222 C 207.657 119.311,210.270 118.007,210.595 117.481 C 210.786 117.172,210.984 117.376,211.908 118.833 C 213.105 120.722,213.866 120.977,214.078 119.560 C 214.961 113.672,217.611 110.393,222.889 108.656 C 224.573 108.102,225.009 107.895,225.092 107.608 C 226.011 104.421,228.171 100.682,229.956 99.190 L 230.667 98.596 230.667 51.465 L 230.667 4.333 218.917 4.333 L 207.167 4.333 207.167 16.750 M306.500 12.750 L 306.500 21.167 318.250 21.167 L 330.000 21.167 330.000 12.750 L 330.000 4.333 318.250 4.333 L 306.500 4.333 306.500 12.750 M372.167 16.750 C 372.167 24.619,372.108 29.167,372.006 29.167 C 371.917 29.167,371.494 28.944,371.066 28.672 C 366.699 25.903,356.641 24.945,350.713 26.733 C 345.329 28.357,341.762 31.614,340.669 35.902 C 340.338 37.203,340.333 37.675,340.333 72.672 L 340.333 108.124 340.733 109.700 C 342.350 116.072,347.886 119.874,358.027 121.574 C 363.206 122.442,370.419 120.911,374.747 118.025 C 375.930 117.236,375.764 117.166,376.863 118.919 L 377.750 120.333 386.708 120.333 L 395.667 120.333 395.667 62.333 L 395.667 4.333 383.917 4.333 L 372.167 4.333 372.167 16.750 M132.000 26.088 C 119.653 27.179,112.532 31.957,110.635 40.424 C 110.275 42.029,110.261 42.431,110.206 52.792 L 110.149 63.500 121.511 63.500 L 132.873 63.500 132.784 61.875 C 132.083 49.073,132.284 45.227,133.799 42.440 C 135.321 39.640,139.106 39.515,140.602 42.215 L 141.083 43.083 141.136 50.917 C 141.164 55.225,141.140 59.004,141.082 59.314 C 140.786 60.894,137.918 62.913,131.000 66.410 C 118.862 72.546,113.263 76.768,110.924 81.546 C 109.374 84.715,109.417 84.253,109.417 97.750 L 109.417 109.583 109.813 111.157 C 110.828 115.187,113.369 118.178,117.141 119.781 L 118.217 120.238 118.650 119.669 C 122.673 114.393,127.763 108.871,131.309 105.938 L 132.869 104.648 132.849 94.949 C 132.824 83.098,132.857 82.923,135.408 81.039 C 136.745 80.053,139.957 78.681,140.958 78.669 C 141.123 78.667,141.167 80.893,141.167 89.250 C 141.167 95.071,141.186 99.833,141.209 99.833 C 141.232 99.833,141.776 99.681,142.417 99.494 C 151.488 96.856,156.907 105.879,153.744 118.356 C 153.518 119.247,153.333 120.057,153.333 120.155 C 153.333 120.278,155.090 120.333,159.000 120.333 L 164.667 120.333 164.667 82.063 C 164.667 40.349,164.704 42.055,163.733 38.833 C 160.783 29.047,149.556 24.537,132.000 26.088 M275.083 26.086 C 271.746 26.475,268.606 27.485,266.499 28.847 C 265.944 29.206,265.454 29.500,265.411 29.500 C 265.368 29.500,265.333 28.825,265.333 28.000 L 265.333 26.500 253.583 26.500 L 241.833 26.500 241.839 70.542 L 241.844 114.583 242.214 114.086 C 249.674 104.053,262.225 101.708,263.111 110.180 C 263.196 110.990,263.500 111.622,263.500 110.987 C 263.500 110.889,263.912 109.940,264.417 108.880 L 265.333 106.951 265.333 75.567 C 265.333 41.786,265.303 42.926,266.225 41.876 C 267.650 40.253,270.986 40.152,272.519 41.686 C 273.588 42.754,273.564 42.485,273.625 54.458 L 273.680 65.333 285.428 65.333 L 297.176 65.333 297.128 51.208 C 297.074 35.417,297.125 36.114,295.855 33.732 C 292.693 27.801,284.919 24.939,275.083 26.086 M306.500 73.417 L 306.500 120.333 318.250 120.333 L 330.000 120.333 330.000 73.417 L 330.000 26.500 318.250 26.500 L 306.500 26.500 306.500 73.417 M205.676 40.923 C 206.147 41.249,206.518 41.698,206.775 42.250 L 207.163 43.083 207.163 73.750 L 207.163 104.417 206.772 105.250 C 205.421 108.126,200.629 108.036,199.305 105.109 L 198.917 104.250 198.917 73.917 C 198.917 40.038,198.828 42.550,200.066 41.350 C 201.283 40.170,204.263 39.944,205.676 40.923 M370.529 40.926 C 370.951 41.222,371.402 41.751,371.658 42.247 L 372.083 43.074 372.083 73.662 C 372.083 102.811,372.069 104.287,371.781 105.034 C 370.514 108.318,364.750 107.946,364.022 104.533 C 363.685 102.953,363.761 43.972,364.101 42.822 C 364.788 40.504,368.409 39.436,370.529 40.926 M143.000 109.636 C 141.246 110.230,131.276 120.998,131.901 121.623 C 132.182 121.904,137.559 120.964,139.182 120.349 C 140.105 119.999,140.119 119.984,140.801 118.540 C 142.926 114.037,144.106 109.261,143.000 109.636 M252.901 115.703 C 251.844 116.813,250.222 118.962,249.689 119.958 C 249.166 120.935,250.376 120.379,251.225 119.252 C 253.311 116.484,254.446 114.079,252.901 115.703 M261.497 118.544 C 261.086 119.386,260.725 120.133,260.694 120.204 C 260.664 120.275,261.166 120.333,261.811 120.333 L 262.983 120.333 262.809 119.836 C 262.714 119.562,262.547 118.815,262.440 118.175 L 262.244 117.012 261.497 118.544 " stroke="none" fill="#641474" fill-rule="evenodd"></path><path id="path3" d="M230.749 51.417 C 230.749 77.358,230.768 87.946,230.792 74.945 C 230.815 61.944,230.815 40.719,230.792 27.778 C 230.768 14.838,230.749 25.475,230.749 51.417 M330.077 12.750 C 330.077 17.425,330.099 19.361,330.125 17.053 C 330.151 14.745,330.151 10.920,330.125 8.553 C 330.099 6.186,330.077 8.075,330.077 12.750 M372.079 16.750 C 372.079 23.625,372.100 26.462,372.125 23.054 C 372.150 19.646,372.150 14.021,372.125 10.554 C 372.100 7.087,372.079 9.875,372.079 16.750 M133.542 25.948 C 133.702 25.990,133.965 25.990,134.125 25.948 C 134.285 25.906,134.154 25.872,133.833 25.872 C 133.512 25.872,133.381 25.906,133.542 25.948 M142.208 25.948 C 142.369 25.990,142.631 25.990,142.792 25.948 C 142.952 25.906,142.821 25.872,142.500 25.872 C 142.179 25.872,142.048 25.906,142.208 25.948 M131.375 26.115 C 131.535 26.157,131.798 26.157,131.958 26.115 C 132.119 26.073,131.987 26.039,131.667 26.039 C 131.346 26.039,131.215 26.073,131.375 26.115 M247.721 26.458 C 251.004 26.484,256.329 26.484,259.554 26.458 C 262.778 26.433,260.092 26.412,253.583 26.412 C 247.075 26.412,244.437 26.433,247.721 26.458 M318.208 26.458 L 330.000 26.502 330.000 73.417 L 330.000 120.331 318.250 120.376 L 306.500 120.420 318.292 120.418 L 330.083 120.417 330.083 73.417 L 330.083 26.417 318.250 26.415 L 306.417 26.413 318.208 26.458 M114.667 32.583 C 114.262 32.996,113.968 33.333,114.014 33.333 C 114.060 33.333,114.428 32.996,114.833 32.583 C 115.238 32.171,115.532 31.833,115.486 31.833 C 115.440 31.833,115.072 32.171,114.667 32.583 M175.415 72.583 C 175.415 91.925,175.435 99.862,175.458 90.222 C 175.482 80.581,175.482 64.756,175.458 55.055 C 175.435 45.354,175.415 53.242,175.415 72.583 M340.248 72.583 C 340.248 91.283,340.268 98.909,340.292 89.528 C 340.315 80.148,340.315 64.848,340.292 55.528 C 340.268 46.209,340.248 53.883,340.248 72.583 M198.915 73.833 C 198.915 90.196,198.934 96.890,198.958 88.708 C 198.982 80.527,198.982 67.140,198.958 58.958 C 198.934 50.777,198.915 57.471,198.915 73.833 M372.082 73.750 C 372.082 90.067,372.101 96.717,372.125 88.528 C 372.149 80.340,372.149 66.990,372.125 58.862 C 372.101 50.734,372.082 57.433,372.082 73.750 M273.578 54.833 C 273.578 60.654,273.599 63.035,273.625 60.125 C 273.650 57.215,273.650 52.452,273.625 49.542 C 273.599 46.631,273.578 49.012,273.578 54.833 M27.500 87.906 L 27.500 120.331 15.958 120.376 L 4.417 120.420 16.000 120.418 L 27.583 120.417 27.667 88.026 C 27.712 70.211,27.694 55.600,27.625 55.558 C 27.556 55.515,27.500 70.072,27.500 87.906 M74.722 55.736 C 74.783 55.896,74.833 70.534,74.833 88.264 L 74.833 120.500 86.542 120.459 L 98.250 120.419 86.625 120.375 L 75.000 120.331 75.000 88.009 C 75.000 63.510,74.953 55.657,74.805 55.566 C 74.672 55.484,74.646 55.538,74.722 55.736 M132.542 57.917 C 132.544 58.283,132.578 58.414,132.618 58.206 C 132.658 57.999,132.656 57.699,132.615 57.540 C 132.573 57.380,132.540 57.550,132.542 57.917 M132.705 60.333 C 132.705 60.654,132.740 60.785,132.782 60.625 C 132.823 60.465,132.823 60.202,132.782 60.042 C 132.740 59.881,132.705 60.012,132.705 60.333 M144.875 99.121 C 145.219 99.157,145.781 99.157,146.125 99.121 C 146.469 99.085,146.188 99.056,145.500 99.056 C 144.813 99.056,144.531 99.085,144.875 99.121 M256.542 105.121 C 256.885 105.157,257.448 105.157,257.792 105.121 C 258.135 105.085,257.854 105.056,257.167 105.056 C 256.479 105.056,256.198 105.085,256.542 105.121 M202.628 107.287 C 202.928 107.325,203.378 107.324,203.628 107.286 C 203.878 107.248,203.633 107.217,203.083 107.218 C 202.533 107.219,202.328 107.250,202.628 107.287 M367.542 107.286 C 367.794 107.324,368.206 107.324,368.458 107.286 C 368.710 107.248,368.504 107.217,368.000 107.217 C 367.496 107.217,367.290 107.248,367.542 107.286 M127.414 109.542 L 125.750 111.250 127.458 109.586 C 128.398 108.672,129.167 107.903,129.167 107.878 C 129.167 107.758,128.959 107.955,127.414 109.542 M154.542 110.417 C 154.544 110.783,154.578 110.914,154.618 110.706 C 154.658 110.499,154.656 110.199,154.615 110.040 C 154.573 109.880,154.540 110.050,154.542 110.417 M244.994 110.792 L 244.083 111.750 245.042 110.839 C 245.932 109.993,246.076 109.833,245.953 109.833 C 245.927 109.833,245.495 110.265,244.994 110.792 M154.539 112.500 C 154.539 112.821,154.573 112.952,154.615 112.792 C 154.657 112.631,154.657 112.369,154.615 112.208 C 154.573 112.048,154.539 112.179,154.539 112.500 M153.169 120.208 C 153.167 120.481,153.538 120.497,158.958 120.461 L 164.750 120.421 159.092 120.375 C 154.822 120.340,153.401 120.278,153.303 120.123 C 153.210 119.978,153.171 120.003,153.169 120.208 M52.167 120.333 L 43.083 120.421 52.115 120.460 C 58.000 120.486,61.183 120.442,61.250 120.333 C 61.307 120.242,61.330 120.184,61.302 120.206 C 61.273 120.228,57.163 120.285,52.167 120.333 M260.500 120.375 C 260.500 120.444,261.119 120.489,261.875 120.475 C 263.295 120.449,263.131 120.379,261.458 120.297 C 260.931 120.271,260.500 120.306,260.500 120.375 M213.042 120.448 C 213.202 120.490,213.465 120.490,213.625 120.448 C 213.785 120.406,213.654 120.372,213.333 120.372 C 213.012 120.372,212.881 120.406,213.042 120.448 M382.197 120.458 C 384.642 120.484,388.692 120.484,391.197 120.458 C 393.701 120.432,391.700 120.411,386.750 120.411 C 381.800 120.411,379.751 120.432,382.197 120.458 M195.208 121.788 C 195.552 121.824,196.115 121.824,196.458 121.788 C 196.802 121.752,196.521 121.723,195.833 121.723 C 195.146 121.723,194.865 121.752,195.208 121.788 M197.795 121.787 C 198.094 121.825,198.544 121.824,198.795 121.786 C 199.045 121.748,198.800 121.717,198.250 121.718 C 197.700 121.719,197.495 121.750,197.795 121.787 M360.042 121.788 C 360.385 121.824,360.948 121.824,361.292 121.788 C 361.635 121.752,361.354 121.723,360.667 121.723 C 359.979 121.723,359.698 121.752,360.042 121.788 M362.628 121.787 C 362.928 121.825,363.378 121.824,363.628 121.786 C 363.878 121.748,363.633 121.717,363.083 121.718 C 362.533 121.719,362.328 121.750,362.628 121.787 " stroke="none" fill="#95599b" fill-rule="evenodd"></path><path id="path4" d="M207.079 16.750 C 207.079 23.625,207.100 26.462,207.125 23.054 C 207.150 19.646,207.150 14.021,207.125 10.554 C 207.100 7.087,207.079 9.875,207.079 16.750 M312.375 21.292 C 315.652 21.317,321.015 21.317,324.292 21.292 C 327.569 21.266,324.887 21.246,318.333 21.246 C 311.779 21.246,309.098 21.266,312.375 21.292 M135.958 25.789 C 136.348 25.824,136.985 25.824,137.375 25.789 C 137.765 25.754,137.446 25.725,136.667 25.725 C 135.887 25.725,135.569 25.754,135.958 25.789 M139.296 25.789 C 139.688 25.824,140.288 25.824,140.629 25.788 C 140.971 25.752,140.650 25.723,139.917 25.724 C 139.183 25.724,138.904 25.754,139.296 25.789 M191.044 25.786 C 191.297 25.825,191.672 25.824,191.877 25.784 C 192.082 25.744,191.875 25.713,191.417 25.714 C 190.958 25.716,190.791 25.748,191.044 25.786 M193.288 25.787 C 193.584 25.824,194.109 25.824,194.455 25.788 C 194.800 25.752,194.558 25.722,193.917 25.721 C 193.275 25.721,192.992 25.750,193.288 25.787 M278.125 25.787 C 278.423 25.824,278.910 25.824,279.208 25.787 C 279.506 25.750,279.262 25.720,278.667 25.720 C 278.071 25.720,277.827 25.750,278.125 25.787 M280.711 25.786 C 280.964 25.825,281.339 25.824,281.544 25.784 C 281.749 25.744,281.542 25.713,281.083 25.714 C 280.625 25.716,280.457 25.748,280.711 25.786 M356.044 25.786 C 356.297 25.825,356.672 25.824,356.877 25.784 C 357.082 25.744,356.875 25.713,356.417 25.714 C 355.958 25.716,355.791 25.748,356.044 25.786 M358.288 25.787 C 358.584 25.824,359.109 25.824,359.455 25.788 C 359.800 25.752,359.558 25.722,358.917 25.721 C 358.275 25.721,357.992 25.750,358.288 25.787 M132.460 25.951 C 132.668 25.991,132.968 25.990,133.127 25.948 C 133.286 25.906,133.117 25.874,132.750 25.875 C 132.383 25.877,132.253 25.911,132.460 25.951 M143.208 25.948 C 143.369 25.990,143.631 25.990,143.792 25.948 C 143.952 25.906,143.821 25.872,143.500 25.872 C 143.179 25.872,143.048 25.906,143.208 25.948 M196.708 25.948 C 196.869 25.990,197.131 25.990,197.292 25.948 C 197.452 25.906,197.321 25.872,197.000 25.872 C 196.679 25.872,196.548 25.906,196.708 25.948 M275.375 25.948 C 275.535 25.990,275.798 25.990,275.958 25.948 C 276.119 25.906,275.987 25.872,275.667 25.872 C 275.346 25.872,275.215 25.906,275.375 25.948 M241.749 70.583 C 241.749 94.967,241.768 104.917,241.792 92.695 C 241.815 80.473,241.815 60.523,241.792 48.362 C 241.768 36.200,241.749 46.200,241.749 70.583 M265.368 27.875 C 265.333 29.501,265.426 29.755,265.855 29.208 C 266.061 28.945,266.055 28.939,265.798 29.140 C 265.534 29.347,265.509 29.248,265.458 27.807 L 265.403 26.250 265.368 27.875 M178.500 30.750 C 178.095 31.162,177.801 31.500,177.847 31.500 C 177.893 31.500,178.262 31.162,178.667 30.750 C 179.072 30.337,179.365 30.000,179.319 30.000 C 179.274 30.000,178.905 30.337,178.500 30.750 M293.750 30.833 C 294.108 31.200,294.438 31.500,294.484 31.500 C 294.530 31.500,294.275 31.200,293.917 30.833 C 293.559 30.467,293.228 30.167,293.182 30.167 C 293.137 30.167,293.392 30.467,293.750 30.833 M340.209 38.083 C 340.211 38.450,340.245 38.580,340.285 38.373 C 340.324 38.166,340.323 37.866,340.281 37.706 C 340.239 37.547,340.207 37.717,340.209 38.083 M297.207 52.041 L 297.167 65.331 285.375 65.375 L 273.583 65.419 285.380 65.459 C 294.694 65.491,297.194 65.456,297.257 65.292 C 297.300 65.177,297.316 59.158,297.292 51.917 L 297.248 38.750 297.207 52.041 M207.082 73.750 C 207.082 90.433,207.101 97.234,207.125 88.862 C 207.149 80.490,207.149 66.840,207.125 58.528 C 207.101 50.217,207.082 57.067,207.082 73.750 M363.915 73.833 C 363.915 90.379,363.934 97.148,363.958 88.875 C 363.982 80.602,363.982 67.065,363.958 58.792 C 363.934 50.519,363.915 57.287,363.915 73.833 M164.749 82.333 C 164.749 103.371,164.768 111.977,164.792 101.458 C 164.815 90.940,164.815 73.727,164.792 63.208 C 164.768 52.690,164.749 61.296,164.749 82.333 M265.415 75.583 C 265.415 92.908,265.434 99.971,265.458 91.278 C 265.482 82.586,265.482 68.411,265.458 59.778 C 265.434 51.146,265.415 58.258,265.415 75.583 M141.077 51.750 C 141.077 55.875,141.098 57.539,141.125 55.447 C 141.151 53.355,141.151 49.980,141.125 47.947 C 141.098 45.914,141.077 47.625,141.077 51.750 M132.399 51.750 C 132.399 53.033,132.426 53.536,132.457 52.868 C 132.489 52.199,132.489 51.149,132.457 50.534 C 132.425 49.920,132.399 50.467,132.399 51.750 M132.542 56.750 C 132.544 57.117,132.578 57.247,132.618 57.040 C 132.658 56.832,132.656 56.532,132.615 56.373 C 132.573 56.214,132.540 56.383,132.542 56.750 M132.712 59.167 C 132.712 59.579,132.745 59.748,132.784 59.542 C 132.824 59.335,132.824 58.998,132.784 58.792 C 132.745 58.585,132.712 58.754,132.712 59.167 M139.906 60.875 L 139.417 61.417 139.958 60.927 C 140.256 60.658,140.500 60.414,140.500 60.385 C 140.500 60.257,140.362 60.370,139.906 60.875 M132.833 62.499 L 132.833 63.498 121.458 63.542 L 110.083 63.586 121.542 63.626 L 133.000 63.667 133.000 62.583 C 133.000 61.987,132.962 61.500,132.917 61.500 C 132.871 61.500,132.833 61.949,132.833 62.499 M140.829 78.776 C 140.943 78.833,141.000 82.379,141.000 89.431 C 141.000 99.387,141.017 100.000,141.292 99.997 C 141.498 99.996,141.523 99.957,141.376 99.863 C 141.216 99.761,141.160 97.382,141.126 89.255 C 141.092 80.924,141.040 78.769,140.871 78.735 C 140.754 78.711,140.735 78.730,140.829 78.776 M132.911 94.417 C 132.911 99.183,132.932 101.109,132.958 98.697 C 132.984 96.284,132.984 92.384,132.958 90.030 C 132.932 87.676,132.911 89.650,132.911 94.417 M109.245 97.667 C 109.245 103.304,109.266 105.610,109.292 102.792 C 109.317 99.973,109.317 95.360,109.292 92.542 C 109.266 89.723,109.245 92.029,109.245 97.667 M145.042 100.786 C 145.294 100.824,145.706 100.824,145.958 100.786 C 146.210 100.748,146.004 100.717,145.500 100.717 C 144.996 100.717,144.790 100.748,145.042 100.786 M150.000 102.583 C 150.311 102.904,150.603 103.167,150.649 103.167 C 150.695 103.167,150.478 102.904,150.167 102.583 C 149.856 102.263,149.564 102.000,149.518 102.000 C 149.472 102.000,149.689 102.263,150.000 102.583 M284.833 104.552 C 284.833 104.581,285.077 104.825,285.375 105.094 L 285.917 105.583 285.427 105.042 C 284.971 104.537,284.833 104.423,284.833 104.552 M340.212 107.167 C 340.212 107.579,340.245 107.748,340.284 107.542 C 340.324 107.335,340.324 106.998,340.284 106.792 C 340.245 106.585,340.212 106.754,340.212 107.167 M257.042 106.782 C 257.202 106.823,257.465 106.823,257.625 106.782 C 257.785 106.740,257.654 106.705,257.333 106.705 C 257.012 106.705,256.881 106.740,257.042 106.782 M129.406 107.708 L 128.917 108.250 129.458 107.760 C 129.756 107.491,130.000 107.248,130.000 107.219 C 130.000 107.090,129.862 107.203,129.406 107.708 M129.579 109.875 L 128.417 111.083 129.625 109.921 C 130.747 108.842,130.909 108.667,130.787 108.667 C 130.762 108.667,130.218 109.210,129.579 109.875 M287.372 109.667 C 287.372 109.987,287.406 110.119,287.448 109.958 C 287.490 109.798,287.490 109.535,287.448 109.375 C 287.406 109.215,287.372 109.346,287.372 109.667 M152.893 111.500 C 152.893 112.371,152.922 112.727,152.956 112.292 C 152.990 111.856,152.990 111.144,152.956 110.708 C 152.922 110.273,152.893 110.629,152.893 111.500 M137.829 111.625 L 136.750 112.750 137.875 111.671 C 138.494 111.078,139.000 110.572,139.000 110.546 C 139.000 110.424,138.830 110.580,137.829 111.625 M246.824 111.458 L 246.250 112.083 246.875 111.509 C 247.457 110.974,247.577 110.833,247.449 110.833 C 247.422 110.833,247.140 111.115,246.824 111.458 M154.539 111.500 C 154.539 111.821,154.573 111.952,154.615 111.792 C 154.657 111.631,154.657 111.369,154.615 111.208 C 154.573 111.048,154.539 111.179,154.539 111.500 M217.573 111.542 L 217.083 112.083 217.625 111.594 C 218.130 111.138,218.243 111.000,218.115 111.000 C 218.086 111.000,217.842 111.244,217.573 111.542 M261.550 111.833 C 261.550 112.337,261.581 112.544,261.619 112.292 C 261.658 112.040,261.658 111.627,261.619 111.375 C 261.581 111.123,261.550 111.329,261.550 111.833 M127.162 112.292 L 126.083 113.417 127.208 112.338 C 127.827 111.745,128.333 111.239,128.333 111.213 C 128.333 111.090,128.164 111.247,127.162 112.292 M125.073 112.042 L 124.583 112.583 125.125 112.094 C 125.423 111.825,125.667 111.581,125.667 111.552 C 125.667 111.423,125.529 111.537,125.073 112.042 M138.913 112.875 L 137.583 114.250 138.958 112.921 C 140.235 111.686,140.409 111.500,140.288 111.500 C 140.263 111.500,139.644 112.119,138.913 112.875 M245.573 112.708 L 245.083 113.250 245.625 112.760 C 246.130 112.304,246.243 112.167,246.115 112.167 C 246.086 112.167,245.842 112.410,245.573 112.708 M178.167 114.719 C 178.167 114.748,178.410 114.991,178.708 115.260 L 179.250 115.750 178.760 115.208 C 178.304 114.703,178.167 114.590,178.167 114.719 M252.824 115.625 L 252.250 116.250 252.875 115.676 C 253.457 115.141,253.577 115.000,253.449 115.000 C 253.422 115.000,253.140 115.281,252.824 115.625 M264.042 116.750 C 264.044 117.117,264.078 117.247,264.118 117.040 C 264.158 116.832,264.156 116.532,264.115 116.373 C 264.073 116.214,264.040 116.383,264.042 116.750 M112.917 117.167 C 113.275 117.533,113.605 117.833,113.651 117.833 C 113.697 117.833,113.441 117.533,113.083 117.167 C 112.725 116.800,112.395 116.500,112.349 116.500 C 112.303 116.500,112.559 116.800,112.917 117.167 M233.658 119.292 L 233.083 119.917 233.708 119.342 C 234.290 118.808,234.410 118.667,234.283 118.667 C 234.255 118.667,233.974 118.948,233.658 119.292 M207.667 121.219 C 207.667 121.248,207.910 121.491,208.208 121.760 L 208.750 122.250 208.260 121.708 C 207.804 121.203,207.667 121.090,207.667 121.219 M131.708 121.782 C 131.869 121.823,132.131 121.823,132.292 121.782 C 132.452 121.740,132.321 121.705,132.000 121.705 C 131.679 121.705,131.548 121.740,131.708 121.782 M220.375 121.948 C 220.535 121.990,220.798 121.990,220.958 121.948 C 221.119 121.906,220.987 121.872,220.667 121.872 C 220.346 121.872,220.215 121.906,220.375 121.948 M282.039 124.667 C 282.039 124.987,282.073 125.119,282.115 124.958 C 282.157 124.798,282.157 124.535,282.115 124.375 C 282.073 124.215,282.039 124.346,282.039 124.667 M246.491 126.792 L 245.917 127.417 246.542 126.842 C 247.123 126.308,247.243 126.167,247.116 126.167 C 247.088 126.167,246.807 126.448,246.491 126.792 M210.712 127.333 C 210.712 127.746,210.745 127.915,210.784 127.708 C 210.824 127.502,210.824 127.165,210.784 126.958 C 210.745 126.752,210.712 126.921,210.712 127.333 M252.406 127.542 L 251.917 128.083 252.458 127.594 C 252.963 127.138,253.077 127.000,252.948 127.000 C 252.919 127.000,252.675 127.244,252.406 127.542 M191.042 128.115 C 191.202 128.157,191.465 128.157,191.625 128.115 C 191.785 128.073,191.654 128.039,191.333 128.039 C 191.012 128.039,190.881 128.073,191.042 128.115 M179.552 131.583 C 179.553 132.133,179.584 132.338,179.621 132.039 C 179.658 131.739,179.657 131.289,179.619 131.039 C 179.581 130.788,179.551 131.033,179.552 131.583 M237.718 131.750 C 237.719 132.300,237.750 132.505,237.787 132.205 C 237.825 131.906,237.824 131.456,237.786 131.205 C 237.748 130.955,237.717 131.200,237.718 131.750 M172.750 132.287 C 172.933 132.332,173.196 132.455,173.333 132.560 C 173.551 132.725,173.554 132.712,173.355 132.458 C 173.229 132.298,172.966 132.175,172.771 132.186 C 172.434 132.204,172.433 132.209,172.750 132.287 M259.406 133.375 L 258.917 133.917 259.458 133.427 C 259.963 132.971,260.077 132.833,259.948 132.833 C 259.919 132.833,259.675 133.077,259.406 133.375 M225.381 134.417 C 225.382 134.875,225.415 135.043,225.453 134.789 C 225.491 134.536,225.490 134.161,225.451 133.956 C 225.411 133.751,225.380 133.958,225.381 134.417 M169.073 134.875 L 168.583 135.417 169.125 134.927 C 169.423 134.658,169.667 134.414,169.667 134.385 C 169.667 134.257,169.529 134.370,169.073 134.875 M277.750 138.333 C 278.108 138.700,278.438 139.000,278.484 139.000 C 278.530 139.000,278.275 138.700,277.917 138.333 C 277.559 137.967,277.228 137.667,277.182 137.667 C 277.137 137.667,277.392 137.967,277.750 138.333 M225.379 139.167 C 225.379 139.579,225.411 139.748,225.451 139.542 C 225.491 139.335,225.491 138.998,225.451 138.792 C 225.411 138.585,225.379 138.754,225.379 139.167 M281.125 140.118 C 281.331 140.157,281.669 140.157,281.875 140.118 C 282.081 140.078,281.912 140.045,281.500 140.045 C 281.087 140.045,280.919 140.078,281.125 140.118 M231.161 142.625 L 230.250 143.583 231.208 142.672 C 232.099 141.826,232.243 141.667,232.119 141.667 C 232.093 141.667,231.662 142.098,231.161 142.625 M257.662 142.958 L 256.583 144.083 257.708 143.005 C 258.753 142.003,258.910 141.833,258.787 141.833 C 258.761 141.833,258.255 142.340,257.662 142.958 M166.580 144.542 L 164.917 146.250 166.625 144.586 C 167.565 143.672,168.333 142.903,168.333 142.878 C 168.333 142.758,168.125 142.955,166.580 144.542 M218.379 143.500 C 218.379 143.912,218.411 144.081,218.451 143.875 C 218.491 143.669,218.491 143.331,218.451 143.125 C 218.411 142.919,218.379 143.087,218.379 143.500 M125.709 143.750 C 125.711 144.117,125.745 144.247,125.785 144.040 C 125.824 143.832,125.823 143.532,125.781 143.373 C 125.739 143.214,125.707 143.383,125.709 143.750 M171.912 145.875 L 170.750 147.083 171.958 145.921 C 173.081 144.842,173.243 144.667,173.121 144.667 C 173.095 144.667,172.551 145.210,171.912 145.875 M218.379 146.000 C 218.379 146.412,218.411 146.581,218.451 146.375 C 218.491 146.169,218.491 145.831,218.451 145.625 C 218.411 145.419,218.379 145.587,218.379 146.000 M209.324 146.458 L 208.750 147.083 209.375 146.509 C 209.957 145.974,210.077 145.833,209.949 145.833 C 209.922 145.833,209.640 146.115,209.324 146.458 M207.375 147.448 C 207.535 147.490,207.798 147.490,207.958 147.448 C 208.119 147.406,207.987 147.372,207.667 147.372 C 207.346 147.372,207.215 147.406,207.375 147.448 M198.872 148.333 C 198.872 148.654,198.906 148.785,198.948 148.625 C 198.990 148.465,198.990 148.202,198.948 148.042 C 198.906 147.881,198.872 148.012,198.872 148.333 M131.042 149.615 C 131.202 149.657,131.465 149.657,131.625 149.615 C 131.785 149.573,131.654 149.539,131.333 149.539 C 131.012 149.539,130.881 149.573,131.042 149.615 M230.078 151.208 L 229.083 152.250 230.125 151.255 C 230.698 150.708,231.167 150.239,231.167 150.214 C 231.167 150.090,231.002 150.241,230.078 151.208 M155.714 151.417 C 155.716 151.875,155.748 152.043,155.786 151.789 C 155.825 151.536,155.824 151.161,155.784 150.956 C 155.744 150.751,155.713 150.958,155.714 151.417 M220.167 152.719 C 220.167 152.748,220.410 152.991,220.708 153.260 L 221.250 153.750 220.760 153.208 C 220.304 152.703,220.167 152.590,220.167 152.719 M176.411 154.208 L 175.417 155.250 176.458 154.255 C 177.426 153.331,177.576 153.167,177.453 153.167 C 177.427 153.167,176.959 153.635,176.411 154.208 M116.205 154.667 C 116.205 154.987,116.240 155.119,116.282 154.958 C 116.323 154.798,116.323 154.535,116.282 154.375 C 116.240 154.215,116.205 154.346,116.205 154.667 M165.167 156.219 C 165.167 156.248,165.410 156.491,165.708 156.760 L 166.250 157.250 165.760 156.708 C 165.304 156.203,165.167 156.090,165.167 156.219 M116.205 157.833 C 116.205 158.154,116.240 158.285,116.282 158.125 C 116.323 157.965,116.323 157.702,116.282 157.542 C 116.240 157.381,116.205 157.512,116.205 157.833 M141.247 159.875 L 139.417 161.750 141.292 159.920 C 142.323 158.913,143.167 158.069,143.167 158.045 C 143.167 157.924,142.947 158.133,141.247 159.875 M168.792 158.284 C 168.998 158.324,169.335 158.324,169.542 158.284 C 169.748 158.245,169.579 158.212,169.167 158.212 C 168.754 158.212,168.585 158.245,168.792 158.284 M160.326 164.708 C 160.735 165.144,161.091 165.500,161.118 165.500 C 161.243 165.500,161.111 165.350,160.375 164.660 L 159.583 163.917 160.326 164.708 M119.417 167.167 C 119.775 167.533,120.105 167.833,120.151 167.833 C 120.197 167.833,119.941 167.533,119.583 167.167 C 119.225 166.800,118.895 166.500,118.849 166.500 C 118.803 166.500,119.059 166.800,119.417 167.167 M139.747 170.208 L 138.250 171.750 139.792 170.253 C 141.224 168.864,141.409 168.667,141.288 168.667 C 141.263 168.667,140.570 169.360,139.747 170.208 " stroke="none" fill="#b383b4" fill-rule="evenodd"></path></g></svg>