<svg xmlns="http://www.w3.org/2000/svg" xmlns:xlink="http://www.w3.org/1999/xlink" width="789" zoomAndPan="magnify" viewBox="0 0 591.75 165.000002" height="220" preserveAspectRatio="xMidYMid meet" version="1.0"><defs><clipPath id="41e8674801"><path d="M 23 21.3125 L 26.34375 21.3125 L 26.34375 51 L 23 51 Z M 23 21.3125 " clip-rule="nonzero"/></clipPath><clipPath id="89786e0641"><path d="M 26.28125 21.636719 L 23.113281 21.636719 L 23.113281 50.84375 L 26.28125 50.757812 Z M 26.28125 21.636719 " clip-rule="nonzero"/></clipPath><clipPath id="4fc7d06368"><path d="M 0 0.46875 L 3.34375 0.46875 L 3.34375 30 L 0 30 Z M 0 0.46875 " clip-rule="nonzero"/></clipPath><clipPath id="f055124c7f"><path d="M 3.28125 0.636719 L 0.113281 0.636719 L 0.113281 29.84375 L 3.28125 29.757812 Z M 3.28125 0.636719 " clip-rule="nonzero"/></clipPath><clipPath id="b3652131d7"><rect x="0" width="4" y="0" height="30"/></clipPath><clipPath id="505ef81203"><path d="M 58.429688 21.3125 L 83.554688 21.3125 L 83.554688 64.996094 L 58.429688 64.996094 Z M 58.429688 21.3125 " clip-rule="nonzero"/></clipPath><clipPath id="2e80b2572a"><path d="M 83.535156 64.867188 L 82.335938 21.636719 L 58.695312 21.636719 L 83.023438 64.867188 Z M 83.535156 64.867188 " clip-rule="nonzero"/></clipPath><clipPath id="3cabca0c58"><path d="M 0.671875 0.46875 L 25.554688 0.46875 L 25.554688 43.886719 L 0.671875 43.886719 Z M 0.671875 0.46875 " clip-rule="nonzero"/></clipPath><clipPath id="8d231d5039"><path d="M 25.535156 43.867188 L 24.335938 0.636719 L 0.695312 0.636719 L 25.023438 43.867188 Z M 25.535156 43.867188 " clip-rule="nonzero"/></clipPath><clipPath id="53a1f7744d"><rect x="0" width="26" y="0" height="44"/></clipPath><clipPath id="c7fa68c5ad"><path d="M 23 66.15625 L 78.53125 66.15625 L 78.53125 110 L 23 110 Z M 23 66.15625 " clip-rule="nonzero"/></clipPath><clipPath id="747b5465a7"><path d="M 54.714844 66.292969 L 54.203125 66.292969 L 55.394531 106.808594 L 26.28125 106.808594 L 26.28125 73.566406 L 23.113281 75.402344 L 23.113281 109.976562 L 55.492188 109.976562 L 55.402344 106.808594 L 78.214844 106.808594 Z M 54.714844 66.292969 " clip-rule="nonzero"/></clipPath><clipPath id="0dadf06850"><path d="M 0 0.15625 L 55.234375 0.15625 L 55.234375 44 L 0 44 Z M 0 0.15625 " clip-rule="nonzero"/></clipPath><clipPath id="2c504d84d2"><path d="M 31.714844 0.292969 L 31.203125 0.292969 L 32.394531 40.808594 L 3.28125 40.808594 L 3.28125 7.566406 L 0.113281 9.402344 L 0.113281 43.976562 L 32.492188 43.976562 L 32.402344 40.808594 L 55.214844 40.808594 Z M 31.714844 0.292969 " clip-rule="nonzero"/></clipPath><clipPath id="bc4545c2f4"><rect x="0" width="56" y="0" height="44"/></clipPath><clipPath id="4e48c82778"><path d="M 68.09375 54 L 114.867188 54 L 114.867188 110 L 68.09375 110 Z M 68.09375 54 " clip-rule="nonzero"/></clipPath><clipPath id="58c1469c6f"><path d="M 111.453125 106.808594 L 114.621094 106.808594 L 114.621094 77.601562 L 111.453125 77.691406 L 111.453125 54.050781 L 68.222656 78.375 L 68.222656 78.890625 L 111.453125 77.691406 L 111.453125 106.808594 L 78.214844 106.808594 L 80.046875 109.976562 L 114.621094 109.976562 L 114.621094 106.808594 Z M 111.453125 106.808594 " clip-rule="nonzero"/></clipPath><clipPath id="fc6f134032"><path d="M 0.214844 0 L 46.734375 0 L 46.734375 56 L 0.214844 56 Z M 0.214844 0 " clip-rule="nonzero"/></clipPath><clipPath id="fce0544265"><path d="M 43.453125 52.808594 L 46.621094 52.808594 L 46.621094 23.601562 L 43.453125 23.691406 L 43.453125 0.0507812 L 0.222656 24.375 L 0.222656 24.890625 L 43.453125 23.691406 L 43.453125 52.808594 L 10.214844 52.808594 L 12.046875 55.976562 L 46.621094 55.976562 L 46.621094 52.808594 Z M 43.453125 52.808594 " clip-rule="nonzero"/></clipPath><clipPath id="189ea7e523"><rect x="0" width="47" y="0" height="56"/></clipPath><clipPath id="c472d4cfa6"><path d="M 26 49.53125 L 66.933594 49.53125 L 66.933594 73.886719 L 26 73.886719 Z M 26 49.53125 " clip-rule="nonzero"/></clipPath><clipPath id="18464e740f"><path d="M 66.800781 49.554688 L 26.28125 50.75 L 26.28125 73.558594 L 66.351562 50.332031 C 66.628906 50.167969 66.800781 49.875 66.800781 49.554688 " clip-rule="nonzero"/></clipPath><clipPath id="71b84c1ffa"><path d="M 0.230469 0.53125 L 40.933594 0.53125 L 40.933594 24.714844 L 0.230469 24.714844 Z M 0.230469 0.53125 " clip-rule="nonzero"/></clipPath><clipPath id="8ea6f2dc56"><path d="M 40.800781 0.554688 L 0.28125 1.75 L 0.28125 24.558594 L 40.351562 1.332031 C 40.628906 1.167969 40.800781 0.875 40.800781 0.554688 " clip-rule="nonzero"/></clipPath><clipPath id="29b3433f51"><rect x="0" width="41" y="0" height="25"/></clipPath><clipPath id="09413760cf"><path d="M 23 18.222656 L 58.816406 18.222656 L 58.816406 21.699219 L 23 21.699219 Z M 23 18.222656 " clip-rule="nonzero"/></clipPath><clipPath id="5284737190"><path d="M 26.28125 21.636719 L 58.695312 21.636719 L 56.914062 18.46875 L 23.113281 18.46875 L 23.113281 21.636719 Z M 26.28125 21.636719 " clip-rule="nonzero"/></clipPath><clipPath id="d8a1a2d8dc"><path d="M 0 0.367188 L 35.816406 0.367188 L 35.816406 3.699219 L 0 3.699219 Z M 0 0.367188 " clip-rule="nonzero"/></clipPath><clipPath id="80c4f72eb8"><path d="M 3.28125 3.636719 L 35.695312 3.636719 L 33.914062 0.46875 L 0.113281 0.46875 L 0.113281 3.636719 Z M 3.28125 3.636719 " clip-rule="nonzero"/></clipPath><clipPath id="7be5a74ef1"><rect x="0" width="36" y="0" height="4"/></clipPath><clipPath id="f97261c804"><path d="M 82.011719 18.222656 L 114.867188 18.222656 L 114.867188 54.171875 L 82.011719 54.171875 Z M 82.011719 18.222656 " clip-rule="nonzero"/></clipPath><clipPath id="63a0f3ec47"><path d="M 88.082031 18.46875 L 82.246094 18.46875 L 82.335938 21.636719 L 111.453125 21.636719 L 111.453125 54.050781 L 114.621094 52.269531 L 114.621094 18.46875 Z M 88.082031 18.46875 " clip-rule="nonzero"/></clipPath><clipPath id="fefb39be65"><path d="M 0.0507812 0.367188 L 32.734375 0.367188 L 32.734375 36.152344 L 0.0507812 36.152344 Z M 0.0507812 0.367188 " clip-rule="nonzero"/></clipPath><clipPath id="cf07265c03"><path d="M 6.082031 0.46875 L 0.246094 0.46875 L 0.335938 3.636719 L 29.453125 3.636719 L 29.453125 36.050781 L 32.621094 34.269531 L 32.621094 0.46875 Z M 6.082031 0.46875 " clip-rule="nonzero"/></clipPath><clipPath id="233ab743ee"><rect x="0" width="33" y="0" height="37"/></clipPath><clipPath id="525d37554e"><path d="M 229.175781 120.269531 L 234.085938 120.269531 L 234.085938 145.183594 L 229.175781 145.183594 Z M 229.175781 120.269531 " clip-rule="nonzero"/></clipPath><clipPath id="a731969d48"><path d="M 0.175781 0.269531 L 5.085938 0.269531 L 5.085938 25.183594 L 0.175781 25.183594 Z M 0.175781 0.269531 " clip-rule="nonzero"/></clipPath><clipPath id="e67423b4a2"><rect x="0" width="6" y="0" height="26"/></clipPath><clipPath id="ed680f364e"><path d="M 240.828125 120.214844 L 265.332031 120.214844 L 265.332031 145.238281 L 240.828125 145.238281 Z M 240.828125 120.214844 " clip-rule="nonzero"/></clipPath><clipPath id="7b5d9b371a"><path d="M 265.234375 120.269531 L 265.234375 145.183594 L 260.359375 145.183594 L 260.359375 129.019531 L 253.328125 140.582031 L 252.753906 140.605469 L 245.761719 129.089844 L 245.761719 145.191406 L 240.847656 145.191406 L 240.847656 120.269531 L 245.902344 120.269531 L 253.042969 132.03125 L 260.15625 120.269531 Z M 265.234375 120.269531 " clip-rule="nonzero"/></clipPath><clipPath id="0608eb22cf"><path d="M 0.828125 0.230469 L 25.261719 0.230469 L 25.261719 25.238281 L 0.828125 25.238281 Z M 0.828125 0.230469 " clip-rule="nonzero"/></clipPath><clipPath id="c67c62fe77"><path d="M 25.234375 0.269531 L 25.234375 25.183594 L 20.359375 25.183594 L 20.359375 9.019531 L 13.328125 20.582031 L 12.753906 20.605469 L 5.761719 9.089844 L 5.761719 25.191406 L 0.847656 25.191406 L 0.847656 0.269531 L 5.902344 0.269531 L 13.042969 12.03125 L 20.15625 0.269531 Z M 25.234375 0.269531 " clip-rule="nonzero"/></clipPath><clipPath id="34def63953"><rect x="0" width="26" y="0" height="26"/></clipPath><clipPath id="4ee0ab9c64"><path d="M 271.980469 120.214844 L 289.835938 120.214844 L 289.835938 145.238281 L 271.980469 145.238281 Z M 271.980469 120.214844 " clip-rule="nonzero"/></clipPath><clipPath id="7c094d4ace"><path d="M 281.285156 132.40625 C 282.328125 132.40625 283.191406 132.039062 283.878906 131.316406 C 284.5625 130.59375 284.914062 129.699219 284.914062 128.632812 C 284.914062 127.546875 284.570312 126.644531 283.878906 125.925781 C 283.183594 125.210938 282.328125 124.863281 281.285156 124.863281 L 276.90625 124.863281 L 276.90625 132.40625 Z M 281.285156 120.269531 C 283.675781 120.269531 285.695312 121.074219 287.335938 122.691406 C 288.976562 124.308594 289.789062 126.285156 289.789062 128.632812 C 289.789062 130.980469 288.96875 132.964844 287.335938 134.574219 C 285.703125 136.183594 283.683594 136.996094 281.285156 136.996094 L 276.90625 136.996094 L 276.90625 145.183594 L 271.996094 145.183594 L 271.996094 120.269531 Z M 281.285156 120.269531 " clip-rule="nonzero"/></clipPath><clipPath id="7acadd504b"><path d="M 0.980469 0.230469 L 18.832031 0.230469 L 18.832031 25.238281 L 0.980469 25.238281 Z M 0.980469 0.230469 " clip-rule="nonzero"/></clipPath><clipPath id="6446207870"><path d="M 10.285156 12.40625 C 11.328125 12.40625 12.191406 12.039062 12.878906 11.316406 C 13.5625 10.59375 13.914062 9.699219 13.914062 8.632812 C 13.914062 7.546875 13.570312 6.644531 12.878906 5.925781 C 12.183594 5.210938 11.328125 4.863281 10.285156 4.863281 L 5.90625 4.863281 L 5.90625 12.40625 Z M 10.285156 0.269531 C 12.675781 0.269531 14.695312 1.074219 16.335938 2.691406 C 17.976562 4.308594 18.789062 6.285156 18.789062 8.632812 C 18.789062 10.980469 17.96875 12.964844 16.335938 14.574219 C 14.703125 16.183594 12.683594 16.996094 10.285156 16.996094 L 5.90625 16.996094 L 5.90625 25.183594 L 0.996094 25.183594 L 0.996094 0.269531 Z M 10.285156 0.269531 " clip-rule="nonzero"/></clipPath><clipPath id="11caa47442"><rect x="0" width="19" y="0" height="26"/></clipPath><clipPath id="e7fc9d3697"><path d="M 293.746094 119.691406 L 319.816406 119.691406 L 319.816406 145.761719 L 293.746094 145.761719 Z M 293.746094 119.691406 " clip-rule="nonzero"/></clipPath><clipPath id="8e517c82b8"><path d="M 301.007812 138.585938 C 302.550781 140.113281 304.460938 140.882812 306.742188 140.882812 C 309.023438 140.882812 310.929688 140.113281 312.472656 138.585938 C 314.015625 137.058594 314.785156 135.105469 314.785156 132.734375 C 314.785156 130.363281 314.011719 128.402344 312.472656 126.859375 C 310.9375 125.316406 309.023438 124.546875 306.742188 124.546875 C 304.460938 124.546875 302.550781 125.324219 301.007812 126.859375 C 299.464844 128.394531 298.699219 130.363281 298.699219 132.734375 C 298.699219 135.105469 299.464844 137.058594 301.007812 138.585938 M 315.925781 141.933594 C 313.40625 144.4375 310.347656 145.691406 306.742188 145.691406 C 303.132812 145.691406 300.078125 144.4375 297.570312 141.933594 C 295.066406 139.429688 293.816406 136.363281 293.816406 132.734375 C 293.816406 129.101562 295.066406 126.03125 297.570312 123.527344 C 300.078125 121.023438 303.125 119.769531 306.734375 119.769531 C 310.34375 119.769531 313.398438 121.023438 315.917969 123.527344 C 318.4375 126.03125 319.691406 129.097656 319.691406 132.734375 C 319.691406 136.371094 318.429688 139.429688 315.917969 141.933594 " clip-rule="nonzero"/></clipPath><clipPath id="3c2f5ba5b3"><path d="M 0.746094 0.753906 L 26.816406 0.753906 L 26.816406 26.757812 L 0.746094 26.757812 Z M 0.746094 0.753906 " clip-rule="nonzero"/></clipPath><clipPath id="3e38574214"><path d="M 8.007812 19.585938 C 9.550781 21.113281 11.460938 21.882812 13.742188 21.882812 C 16.023438 21.882812 17.929688 21.113281 19.472656 19.585938 C 21.015625 18.058594 21.785156 16.105469 21.785156 13.734375 C 21.785156 11.363281 21.011719 9.402344 19.472656 7.859375 C 17.9375 6.316406 16.023438 5.546875 13.742188 5.546875 C 11.460938 5.546875 9.550781 6.324219 8.007812 7.859375 C 6.464844 9.394531 5.699219 11.363281 5.699219 13.734375 C 5.699219 16.105469 6.464844 18.058594 8.007812 19.585938 M 22.925781 22.933594 C 20.40625 25.4375 17.347656 26.691406 13.742188 26.691406 C 10.132812 26.691406 7.078125 25.4375 4.570312 22.933594 C 2.066406 20.429688 0.816406 17.363281 0.816406 13.734375 C 0.816406 10.101562 2.066406 7.03125 4.570312 4.527344 C 7.078125 2.023438 10.125 0.769531 13.734375 0.769531 C 17.34375 0.769531 20.398438 2.023438 22.917969 4.527344 C 25.4375 7.03125 26.691406 10.097656 26.691406 13.734375 C 26.691406 17.371094 25.429688 20.429688 22.917969 22.933594 " clip-rule="nonzero"/></clipPath><clipPath id="6de49fe718"><rect x="0" width="27" y="0" height="27"/></clipPath><clipPath id="a88ab6cd53"><path d="M 325.160156 120.214844 L 344.320312 120.214844 L 344.320312 145.238281 L 325.160156 145.238281 Z M 325.160156 120.214844 " clip-rule="nonzero"/></clipPath><clipPath id="840482f39e"><path d="M 330.195312 124.863281 L 330.195312 132.226562 L 335.25 132.226562 C 336.171875 132.226562 336.972656 131.867188 337.632812 131.136719 C 338.296875 130.40625 338.632812 129.542969 338.632812 128.523438 C 338.632812 127.5 338.296875 126.636719 337.632812 125.925781 C 336.972656 125.21875 336.171875 124.863281 335.25 124.863281 Z M 338.953125 145.183594 L 333.914062 136.535156 L 330.195312 136.535156 L 330.195312 145.183594 L 325.28125 145.183594 L 325.28125 120.269531 L 335.25 120.269531 C 337.550781 120.269531 339.503906 121.074219 341.125 122.691406 C 342.742188 124.308594 343.546875 126.253906 343.546875 128.527344 C 343.546875 130.074219 343.105469 131.503906 342.226562 132.824219 C 341.347656 134.144531 340.183594 135.125 338.738281 135.796875 L 344.253906 145.199219 Z M 338.953125 145.183594 " clip-rule="nonzero"/></clipPath><clipPath id="82b04ea015"><path d="M 0.160156 0.230469 L 19.320312 0.230469 L 19.320312 25.238281 L 0.160156 25.238281 Z M 0.160156 0.230469 " clip-rule="nonzero"/></clipPath><clipPath id="a84cc05c84"><path d="M 5.195312 4.863281 L 5.195312 12.226562 L 10.25 12.226562 C 11.171875 12.226562 11.972656 11.867188 12.632812 11.136719 C 13.296875 10.40625 13.632812 9.542969 13.632812 8.523438 C 13.632812 7.5 13.296875 6.636719 12.632812 5.925781 C 11.972656 5.21875 11.171875 4.863281 10.25 4.863281 Z M 13.953125 25.183594 L 8.914062 16.535156 L 5.195312 16.535156 L 5.195312 25.183594 L 0.28125 25.183594 L 0.28125 0.269531 L 10.25 0.269531 C 12.550781 0.269531 14.503906 1.074219 16.125 2.691406 C 17.742188 4.308594 18.546875 6.253906 18.546875 8.527344 C 18.546875 10.074219 18.105469 11.503906 17.226562 12.824219 C 16.347656 14.144531 15.183594 15.125 13.738281 15.796875 L 19.253906 25.199219 Z M 13.953125 25.183594 " clip-rule="nonzero"/></clipPath><clipPath id="10b787c253"><rect x="0" width="20" y="0" height="26"/></clipPath><clipPath id="12ce2b8b7d"><path d="M 346.886719 120.269531 L 365.21875 120.269531 L 365.21875 124.964844 L 346.886719 124.964844 Z M 353.574219 124.964844 L 358.484375 124.964844 L 358.484375 145.183594 L 353.574219 145.183594 Z M 353.574219 124.964844 " clip-rule="nonzero"/></clipPath><clipPath id="48ee7b810f"><path d="M 0.886719 0.269531 L 19.21875 0.269531 L 19.21875 4.964844 L 0.886719 4.964844 Z M 7.574219 4.964844 L 12.484375 4.964844 L 12.484375 25.183594 L 7.574219 25.183594 Z M 7.574219 4.964844 " clip-rule="nonzero"/></clipPath><clipPath id="60a4f5d1d4"><rect x="0" width="20" y="0" height="26"/></clipPath><clipPath id="dde643e0f3"><path d="M 366 120.214844 L 389.683594 120.214844 L 389.683594 145.238281 L 366 145.238281 Z M 366 120.214844 " clip-rule="nonzero"/></clipPath><clipPath id="8a3b994a11"><path d="M 374.4375 136.109375 L 381.453125 136.109375 L 377.859375 125.925781 Z M 384.660156 145.191406 L 383.078125 140.703125 L 372.835938 140.703125 L 371.335938 145.191406 L 366.039062 145.191406 L 374.757812 120.269531 L 380.851562 120.269531 L 389.640625 145.191406 Z M 384.660156 145.191406 " clip-rule="nonzero"/></clipPath><clipPath id="1a0b3d6337"><path d="M 0 0.230469 L 23.683594 0.230469 L 23.683594 25.238281 L 0 25.238281 Z M 0 0.230469 " clip-rule="nonzero"/></clipPath><clipPath id="0fae649352"><path d="M 8.4375 16.109375 L 15.453125 16.109375 L 11.859375 5.925781 Z M 18.660156 25.191406 L 17.078125 20.703125 L 6.835938 20.703125 L 5.335938 25.191406 L 0.0390625 25.191406 L 8.757812 0.269531 L 14.851562 0.269531 L 23.640625 25.191406 Z M 18.660156 25.191406 " clip-rule="nonzero"/></clipPath><clipPath id="599c8a7667"><rect x="0" width="24" y="0" height="26"/></clipPath><clipPath id="d0f49b4a5f"><path d="M 394.113281 120.214844 L 416.140625 120.214844 L 416.140625 145.238281 L 394.113281 145.238281 Z M 394.113281 120.214844 " clip-rule="nonzero"/></clipPath><clipPath id="0624eb3709"><path d="M 404.09375 140.488281 C 406.257812 140.488281 408.007812 139.769531 409.363281 138.332031 C 410.722656 136.894531 411.390625 135.03125 411.390625 132.726562 C 411.390625 130.421875 410.714844 128.550781 409.363281 127.121094 C 408.015625 125.6875 406.257812 124.964844 404.09375 124.964844 L 399.113281 124.964844 L 399.113281 140.488281 Z M 404.09375 120.269531 C 407.507812 120.269531 410.363281 121.46875 412.652344 123.863281 C 414.941406 126.253906 416.089844 129.214844 416.089844 132.726562 C 416.089844 136.238281 414.949219 139.191406 412.652344 141.589844 C 410.355469 143.992188 407.507812 145.183594 404.09375 145.183594 L 394.195312 145.183594 L 394.195312 120.269531 Z M 404.09375 120.269531 " clip-rule="nonzero"/></clipPath><clipPath id="623905f123"><path d="M 0.113281 0.230469 L 22.140625 0.230469 L 22.140625 25.238281 L 0.113281 25.238281 Z M 0.113281 0.230469 " clip-rule="nonzero"/></clipPath><clipPath id="a9e3f0ed51"><path d="M 10.09375 20.488281 C 12.257812 20.488281 14.007812 19.769531 15.363281 18.332031 C 16.722656 16.894531 17.390625 15.03125 17.390625 12.726562 C 17.390625 10.421875 16.714844 8.550781 15.363281 7.121094 C 14.015625 5.6875 12.257812 4.964844 10.09375 4.964844 L 5.113281 4.964844 L 5.113281 20.488281 Z M 10.09375 0.269531 C 13.507812 0.269531 16.363281 1.46875 18.652344 3.863281 C 20.941406 6.253906 22.089844 9.214844 22.089844 12.726562 C 22.089844 16.238281 20.949219 19.191406 18.652344 21.589844 C 16.355469 23.992188 13.507812 25.183594 10.09375 25.183594 L 0.195312 25.183594 L 0.195312 0.269531 Z M 10.09375 0.269531 " clip-rule="nonzero"/></clipPath><clipPath id="435888347c"><rect x="0" width="23" y="0" height="26"/></clipPath><clipPath id="58699148e4"><path d="M 420.445312 119.691406 L 446.511719 119.691406 L 446.511719 145.761719 L 420.445312 145.761719 Z M 420.445312 119.691406 " clip-rule="nonzero"/></clipPath><clipPath id="65a130a199"><path d="M 427.761719 138.585938 C 429.304688 140.113281 431.214844 140.882812 433.496094 140.882812 C 435.777344 140.882812 437.683594 140.113281 439.230469 138.585938 C 440.773438 137.058594 441.539062 135.105469 441.539062 132.734375 C 441.539062 130.363281 440.765625 128.402344 439.230469 126.859375 C 437.691406 125.316406 435.777344 124.546875 433.496094 124.546875 C 431.214844 124.546875 429.304688 125.324219 427.761719 126.859375 C 426.21875 128.394531 425.453125 130.363281 425.453125 132.734375 C 425.453125 135.105469 426.21875 137.058594 427.761719 138.585938 M 442.679688 141.933594 C 440.160156 144.4375 437.105469 145.691406 433.496094 145.691406 C 429.886719 145.691406 426.832031 144.4375 424.328125 141.933594 C 421.820312 139.429688 420.570312 136.363281 420.570312 132.734375 C 420.570312 129.101562 421.820312 126.03125 424.328125 123.527344 C 426.832031 121.023438 429.886719 119.769531 433.496094 119.769531 C 437.105469 119.769531 440.167969 121.023438 442.679688 123.527344 C 445.191406 126.03125 446.453125 129.097656 446.453125 132.734375 C 446.453125 136.371094 445.191406 139.429688 442.679688 141.933594 " clip-rule="nonzero"/></clipPath><clipPath id="47f4d7ff25"><path d="M 0.558594 0.753906 L 26.511719 0.753906 L 26.511719 26.757812 L 0.558594 26.757812 Z M 0.558594 0.753906 " clip-rule="nonzero"/></clipPath><clipPath id="a7f85297cd"><path d="M 7.761719 19.585938 C 9.304688 21.113281 11.214844 21.882812 13.496094 21.882812 C 15.777344 21.882812 17.683594 21.113281 19.230469 19.585938 C 20.773438 18.058594 21.539062 16.105469 21.539062 13.734375 C 21.539062 11.363281 20.765625 9.402344 19.230469 7.859375 C 17.691406 6.316406 15.777344 5.546875 13.496094 5.546875 C 11.214844 5.546875 9.304688 6.324219 7.761719 7.859375 C 6.21875 9.394531 5.453125 11.363281 5.453125 13.734375 C 5.453125 16.105469 6.21875 18.058594 7.761719 19.585938 M 22.679688 22.933594 C 20.160156 25.4375 17.105469 26.691406 13.496094 26.691406 C 9.886719 26.691406 6.832031 25.4375 4.328125 22.933594 C 1.820312 20.429688 0.570312 17.363281 0.570312 13.734375 C 0.570312 10.101562 1.820312 7.03125 4.328125 4.527344 C 6.832031 2.023438 9.886719 0.769531 13.496094 0.769531 C 17.105469 0.769531 20.167969 2.023438 22.679688 4.527344 C 25.191406 7.03125 26.453125 10.097656 26.453125 13.734375 C 26.453125 17.371094 25.191406 20.429688 22.679688 22.933594 " clip-rule="nonzero"/></clipPath><clipPath id="0ef554fa53"><rect x="0" width="27" y="0" height="27"/></clipPath><clipPath id="5861d5c4df"><path d="M 449.773438 119.691406 L 468.800781 119.691406 L 468.800781 145.761719 L 449.773438 145.761719 Z M 449.773438 119.691406 " clip-rule="nonzero"/></clipPath><clipPath id="6e86043884"><path d="M 459.65625 145.683594 C 457.1875 145.683594 455.105469 145.132812 453.421875 144.027344 C 451.738281 142.925781 450.550781 141.417969 449.867188 139.523438 L 454.070312 137.066406 C 455.046875 139.605469 456.957031 140.875 459.804688 140.875 C 461.183594 140.875 462.191406 140.621094 462.832031 140.128906 C 463.472656 139.636719 463.792969 139.003906 463.792969 138.242188 C 463.792969 137.363281 463.398438 136.683594 462.613281 136.199219 C 461.832031 135.714844 460.429688 135.1875 458.417969 134.621094 C 457.300781 134.292969 456.359375 133.957031 455.585938 133.621094 C 454.808594 133.285156 454.042969 132.84375 453.273438 132.285156 C 452.503906 131.726562 451.917969 131.019531 451.515625 130.167969 C 451.113281 129.320312 450.910156 128.320312 450.910156 127.179688 C 450.910156 124.929688 451.707031 123.132812 453.3125 121.789062 C 454.914062 120.449219 456.828125 119.769531 459.089844 119.769531 C 461.101562 119.769531 462.875 120.261719 464.410156 121.246094 C 465.945312 122.230469 467.132812 123.601562 467.988281 125.359375 L 463.859375 127.746094 C 462.859375 125.605469 461.273438 124.539062 459.089844 124.539062 C 458.066406 124.539062 457.261719 124.773438 456.6875 125.234375 C 456.113281 125.695312 455.816406 126.300781 455.816406 127.03125 C 455.816406 127.8125 456.136719 128.449219 456.792969 128.933594 C 457.449219 129.417969 458.691406 129.945312 460.550781 130.511719 C 461.308594 130.75 461.882812 130.929688 462.277344 131.0625 C 462.675781 131.199219 463.203125 131.398438 463.882812 131.667969 C 464.558594 131.9375 465.082031 132.195312 465.445312 132.4375 C 465.8125 132.675781 466.238281 132.996094 466.714844 133.398438 C 467.191406 133.800781 467.550781 134.21875 467.804688 134.640625 C 468.054688 135.066406 468.265625 135.589844 468.445312 136.191406 C 468.621094 136.796875 468.710938 137.453125 468.710938 138.167969 C 468.710938 140.472656 467.878906 142.296875 466.199219 143.648438 C 464.523438 144.996094 462.351562 145.675781 459.667969 145.675781 " clip-rule="nonzero"/></clipPath><clipPath id="343fb30753"><path d="M 0.773438 0.753906 L 19.746094 0.753906 L 19.746094 26.757812 L 0.773438 26.757812 Z M 0.773438 0.753906 " clip-rule="nonzero"/></clipPath><clipPath id="b36bb4621d"><path d="M 10.65625 26.683594 C 8.1875 26.683594 6.105469 26.132812 4.421875 25.027344 C 2.738281 23.925781 1.550781 22.417969 0.867188 20.523438 L 5.070312 18.066406 C 6.046875 20.605469 7.957031 21.875 10.804688 21.875 C 12.183594 21.875 13.191406 21.621094 13.832031 21.128906 C 14.472656 20.636719 14.792969 20.003906 14.792969 19.242188 C 14.792969 18.363281 14.398438 17.683594 13.613281 17.199219 C 12.832031 16.714844 11.429688 16.1875 9.417969 15.621094 C 8.300781 15.292969 7.359375 14.957031 6.585938 14.621094 C 5.808594 14.285156 5.042969 13.84375 4.273438 13.285156 C 3.503906 12.726562 2.917969 12.019531 2.515625 11.167969 C 2.113281 10.320312 1.910156 9.320312 1.910156 8.179688 C 1.910156 5.929688 2.707031 4.132812 4.3125 2.789062 C 5.914062 1.449219 7.828125 0.769531 10.089844 0.769531 C 12.101562 0.769531 13.875 1.261719 15.410156 2.246094 C 16.945312 3.230469 18.132812 4.601562 18.988281 6.359375 L 14.859375 8.746094 C 13.859375 6.605469 12.273438 5.539062 10.089844 5.539062 C 9.066406 5.539062 8.261719 5.773438 7.6875 6.234375 C 7.113281 6.695312 6.816406 7.300781 6.816406 8.03125 C 6.816406 8.8125 7.136719 9.449219 7.792969 9.933594 C 8.449219 10.417969 9.691406 10.945312 11.550781 11.511719 C 12.308594 11.75 12.882812 11.929688 13.277344 12.0625 C 13.675781 12.199219 14.203125 12.398438 14.882812 12.667969 C 15.558594 12.9375 16.082031 13.195312 16.445312 13.4375 C 16.8125 13.675781 17.238281 13.996094 17.714844 14.398438 C 18.191406 14.800781 18.550781 15.21875 18.804688 15.640625 C 19.054688 16.066406 19.265625 16.589844 19.445312 17.191406 C 19.621094 17.796875 19.710938 18.453125 19.710938 19.167969 C 19.710938 21.472656 18.878906 23.296875 17.199219 24.648438 C 15.523438 25.996094 13.351562 26.675781 10.667969 26.675781 " clip-rule="nonzero"/></clipPath><clipPath id="6827a96272"><rect x="0" width="20" y="0" height="27"/></clipPath><clipPath id="f01e0c6912"><path d="M 129.074219 33.433594 L 330.679688 33.433594 L 330.679688 94.613281 L 129.074219 94.613281 Z M 129.074219 33.433594 " clip-rule="nonzero"/></clipPath><clipPath id="30608538f7"><path d="M 283.851562 60.050781 L 284.191406 60.050781 L 292.816406 94.550781 L 313.519531 94.550781 L 330.507812 33.480469 L 309.464844 33.480469 L 302.824219 67.8125 L 302.480469 67.8125 L 294.800781 33.480469 L 273.324219 33.480469 L 266.25 67.8125 L 265.90625 67.8125 L 259.351562 33.480469 L 237.613281 33.480469 L 254.269531 94.550781 L 274.972656 94.550781 Z M 193.386719 94.550781 L 236.855469 94.550781 L 236.855469 77.472656 L 212.707031 77.472656 L 212.707031 71.785156 L 234.015625 71.785156 L 234.015625 55.824219 L 212.707031 55.824219 L 212.707031 50.5625 L 235.394531 50.5625 L 235.394531 33.480469 L 193.386719 33.480469 Z M 129.304688 33.480469 L 149.746094 33.480469 L 167.167969 64.449219 L 167.511719 64.449219 L 166.652344 33.480469 L 186.148438 33.480469 L 186.148438 94.550781 L 165.183594 94.550781 L 148.277344 65.394531 L 147.933594 65.394531 L 148.796875 94.550781 L 129.304688 94.550781 Z M 129.304688 33.480469 " clip-rule="nonzero"/></clipPath><clipPath id="7496c36437"><path d="M 0.285156 0.433594 L 201.625 0.433594 L 201.625 61.613281 L 0.285156 61.613281 Z M 0.285156 0.433594 " clip-rule="nonzero"/></clipPath><clipPath id="53ba62fa3f"><path d="M 154.851562 27.050781 L 155.191406 27.050781 L 163.816406 61.550781 L 184.519531 61.550781 L 201.507812 0.480469 L 180.464844 0.480469 L 173.824219 34.8125 L 173.480469 34.8125 L 165.800781 0.480469 L 144.324219 0.480469 L 137.25 34.8125 L 136.90625 34.8125 L 130.351562 0.480469 L 108.613281 0.480469 L 125.269531 61.550781 L 145.972656 61.550781 Z M 64.386719 61.550781 L 107.855469 61.550781 L 107.855469 44.472656 L 83.707031 44.472656 L 83.707031 38.785156 L 105.015625 38.785156 L 105.015625 22.824219 L 83.707031 22.824219 L 83.707031 17.5625 L 106.394531 17.5625 L 106.394531 0.480469 L 64.386719 0.480469 Z M 0.304688 0.480469 L 20.746094 0.480469 L 38.167969 31.449219 L 38.511719 31.449219 L 37.652344 0.480469 L 57.148438 0.480469 L 57.148438 61.550781 L 36.183594 61.550781 L 19.277344 32.394531 L 18.933594 32.394531 L 19.796875 61.550781 L 0.304688 61.550781 Z M 0.304688 0.480469 " clip-rule="nonzero"/></clipPath><clipPath id="c4a397fde5"><rect x="0" width="202" y="0" height="62"/></clipPath><clipPath id="a8a8cc2365"><path d="M 558.503906 28 L 568.703125 28 L 568.703125 38 L 558.503906 38 Z M 558.503906 28 " clip-rule="nonzero"/></clipPath><clipPath id="9e85bc77d8"><path d="M 567.089844 36.589844 C 566.132812 37.515625 564.980469 37.984375 563.636719 37.984375 C 562.25 37.984375 561.078125 37.507812 560.132812 36.5625 C 559.1875 35.613281 558.710938 34.445312 558.710938 33.058594 C 558.710938 31.617188 559.222656 30.417969 560.246094 29.472656 C 561.214844 28.578125 562.339844 28.128906 563.636719 28.128906 C 564.992188 28.128906 566.15625 28.613281 567.117188 29.574219 C 568.078125 30.539062 568.5625 31.699219 568.5625 33.058594 C 568.5625 34.457031 568.074219 35.636719 567.089844 36.597656 M 560.746094 30.210938 C 559.960938 31.015625 559.566406 31.960938 559.566406 33.0625 C 559.566406 34.210938 559.960938 35.179688 560.757812 35.972656 C 561.558594 36.761719 562.511719 37.164062 563.636719 37.164062 C 564.761719 37.164062 565.710938 36.761719 566.507812 35.957031 C 567.304688 35.152344 567.699219 34.183594 567.699219 33.058594 C 567.699219 31.960938 567.304688 31.015625 566.515625 30.203125 C 565.714844 29.382812 564.753906 28.972656 563.636719 28.972656 C 562.503906 28.972656 561.542969 29.382812 560.746094 30.203125 M 561.480469 35.800781 L 561.480469 30.335938 C 561.816406 30.335938 562.324219 30.335938 563.003906 30.335938 C 563.679688 30.335938 564.054688 30.34375 564.128906 30.34375 C 564.5625 30.375 564.917969 30.46875 565.210938 30.625 C 565.695312 30.894531 565.941406 31.328125 565.941406 31.929688 C 565.941406 32.394531 565.8125 32.722656 565.558594 32.929688 C 565.308594 33.140625 564.984375 33.257812 564.613281 33.296875 C 564.957031 33.371094 565.21875 33.472656 565.390625 33.609375 C 565.710938 33.871094 565.875 34.28125 565.875 34.839844 L 565.875 35.324219 C 565.875 35.375 565.875 35.425781 565.886719 35.488281 C 565.902344 35.546875 565.910156 35.589844 565.925781 35.652344 L 565.976562 35.800781 L 564.589844 35.800781 C 564.546875 35.628906 564.515625 35.375 564.5 35.046875 C 564.488281 34.71875 564.457031 34.496094 564.414062 34.375 C 564.335938 34.183594 564.210938 34.046875 564.007812 33.972656 C 563.90625 33.929688 563.742188 33.898438 563.515625 33.882812 L 563.203125 33.863281 L 562.90625 33.863281 L 562.90625 35.792969 Z M 564.089844 31.417969 C 563.890625 31.34375 563.621094 31.304688 563.265625 31.304688 L 562.914062 31.304688 L 562.914062 32.886719 L 563.464844 32.886719 C 563.800781 32.886719 564.0625 32.820312 564.25 32.683594 C 564.433594 32.550781 564.53125 32.332031 564.53125 32.035156 C 564.53125 31.738281 564.382812 31.527344 564.089844 31.417969 " clip-rule="nonzero"/></clipPath><clipPath id="3a4c41ba1a"><path d="M 0.683594 0 L 10.703125 0 L 10.703125 10 L 0.683594 10 Z M 0.683594 0 " clip-rule="nonzero"/></clipPath><clipPath id="c2c0a6e8f2"><path d="M 9.089844 8.589844 C 8.132812 9.515625 6.980469 9.984375 5.636719 9.984375 C 4.25 9.984375 3.078125 9.507812 2.132812 8.5625 C 1.1875 7.613281 0.710938 6.445312 0.710938 5.058594 C 0.710938 3.617188 1.222656 2.417969 2.246094 1.472656 C 3.214844 0.578125 4.339844 0.128906 5.636719 0.128906 C 6.992188 0.128906 8.15625 0.613281 9.117188 1.574219 C 10.078125 2.539062 10.5625 3.699219 10.5625 5.058594 C 10.5625 6.457031 10.074219 7.636719 9.089844 8.597656 M 2.746094 2.210938 C 1.960938 3.015625 1.566406 3.960938 1.566406 5.0625 C 1.566406 6.210938 1.960938 7.179688 2.757812 7.972656 C 3.558594 8.761719 4.511719 9.164062 5.636719 9.164062 C 6.761719 9.164062 7.710938 8.761719 8.507812 7.957031 C 9.304688 7.152344 9.699219 6.183594 9.699219 5.058594 C 9.699219 3.960938 9.304688 3.015625 8.515625 2.203125 C 7.714844 1.382812 6.753906 0.972656 5.636719 0.972656 C 4.503906 0.972656 3.542969 1.382812 2.746094 2.203125 M 3.480469 7.800781 L 3.480469 2.335938 C 3.816406 2.335938 4.324219 2.335938 5.003906 2.335938 C 5.679688 2.335938 6.054688 2.34375 6.128906 2.34375 C 6.5625 2.375 6.917969 2.46875 7.210938 2.625 C 7.695312 2.894531 7.941406 3.328125 7.941406 3.929688 C 7.941406 4.394531 7.8125 4.722656 7.558594 4.929688 C 7.308594 5.140625 6.984375 5.257812 6.613281 5.296875 C 6.957031 5.371094 7.21875 5.472656 7.390625 5.609375 C 7.710938 5.871094 7.875 6.28125 7.875 6.839844 L 7.875 7.324219 C 7.875 7.375 7.875 7.425781 7.886719 7.488281 C 7.902344 7.546875 7.910156 7.589844 7.925781 7.652344 L 7.976562 7.800781 L 6.589844 7.800781 C 6.546875 7.628906 6.515625 7.375 6.5 7.046875 C 6.488281 6.71875 6.457031 6.496094 6.414062 6.375 C 6.335938 6.183594 6.210938 6.046875 6.007812 5.972656 C 5.90625 5.929688 5.742188 5.898438 5.515625 5.882812 L 5.203125 5.863281 L 4.90625 5.863281 L 4.90625 7.792969 Z M 6.089844 3.417969 C 5.890625 3.34375 5.621094 3.304688 5.265625 3.304688 L 4.914062 3.304688 L 4.914062 4.886719 L 5.464844 4.886719 C 5.800781 4.886719 6.0625 4.820312 6.25 4.683594 C 6.433594 4.550781 6.53125 4.332031 6.53125 4.035156 C 6.53125 3.738281 6.382812 3.527344 6.089844 3.417969 " clip-rule="nonzero"/></clipPath><clipPath id="1d26772d98"><rect x="0" width="11" y="0" height="10"/></clipPath><clipPath id="4b4a12a229"><path d="M 336 33.433594 L 382.828125 33.433594 L 382.828125 94.613281 L 336 94.613281 Z M 336 33.433594 " clip-rule="nonzero"/></clipPath><clipPath id="0b777ab156"><path d="M 336.136719 84.71875 L 369.34375 42.972656 L 336.660156 42.972656 L 336.660156 33.480469 L 382.289062 33.480469 L 382.289062 43.324219 L 348.90625 84.890625 L 382.804688 84.890625 L 382.804688 94.550781 L 336.136719 94.550781 Z M 336.136719 84.71875 " clip-rule="nonzero"/></clipPath><clipPath id="2772ad9c02"><path d="M 0.109375 0.433594 L 46.828125 0.433594 L 46.828125 61.613281 L 0.109375 61.613281 Z M 0.109375 0.433594 " clip-rule="nonzero"/></clipPath><clipPath id="e2cf02cf58"><path d="M 0.136719 51.71875 L 33.34375 9.972656 L 0.660156 9.972656 L 0.660156 0.480469 L 46.289062 0.480469 L 46.289062 10.324219 L 12.90625 51.890625 L 46.804688 51.890625 L 46.804688 61.550781 L 0.136719 61.550781 Z M 0.136719 51.71875 " clip-rule="nonzero"/></clipPath><clipPath id="b5f905659c"><rect x="0" width="47" y="0" height="62"/></clipPath><clipPath id="db66974210"><path d="M 382.246094 32.558594 L 446.339844 32.558594 L 446.339844 95.488281 L 382.246094 95.488281 Z M 382.246094 32.558594 " clip-rule="nonzero"/></clipPath><clipPath id="15fd043f26"><path d="M 382.371094 63.851562 C 382.371094 59.097656 383.171875 54.796875 384.765625 50.964844 C 386.359375 47.132812 388.574219 43.867188 391.402344 41.183594 C 394.226562 38.5 397.589844 36.425781 401.480469 34.964844 C 405.371094 33.503906 409.613281 32.78125 414.199219 32.78125 C 418.847656 32.78125 423.128906 33.511719 427.050781 34.964844 C 430.972656 36.417969 434.355469 38.492188 437.210938 41.183594 C 440.066406 43.875 442.292969 47.132812 443.890625 50.964844 C 445.484375 54.796875 446.28125 59.097656 446.28125 63.851562 C 446.28125 68.503906 445.484375 72.738281 443.890625 76.578125 C 442.292969 80.417969 440.066406 83.71875 437.210938 86.484375 C 434.355469 89.25 430.964844 91.414062 427.050781 92.949219 C 423.136719 94.484375 418.847656 95.261719 414.199219 95.261719 C 409.605469 95.261719 405.371094 94.492188 401.480469 92.949219 C 397.589844 91.40625 394.226562 89.25 391.402344 86.484375 C 388.574219 83.71875 386.359375 80.410156 384.765625 76.578125 C 383.171875 72.746094 382.371094 68.503906 382.371094 63.851562 M 393.875 63.851562 C 393.875 67.042969 394.367188 69.972656 395.34375 72.628906 C 396.320312 75.28125 397.722656 77.601562 399.542969 79.554688 C 401.359375 81.507812 403.515625 83.042969 406.003906 84.128906 C 408.496094 85.21875 411.253906 85.769531 414.28125 85.769531 C 417.304688 85.769531 420.070312 85.226562 422.589844 84.128906 C 425.109375 83.035156 427.28125 81.511719 429.101562 79.554688 C 430.917969 77.59375 432.320312 75.28125 433.296875 72.628906 C 434.273438 69.972656 434.765625 67.042969 434.765625 63.851562 C 434.765625 60.773438 434.273438 57.917969 433.296875 55.289062 C 432.320312 52.65625 430.925781 50.359375 429.136719 48.398438 C 427.347656 46.4375 425.191406 44.902344 422.671875 43.777344 C 420.152344 42.652344 417.359375 42.101562 414.28125 42.101562 C 411.199219 42.101562 408.414062 42.660156 405.921875 43.777344 C 403.433594 44.894531 401.285156 46.4375 399.496094 48.398438 C 397.707031 50.359375 396.320312 52.65625 395.335938 55.289062 C 394.351562 57.917969 393.867188 60.773438 393.867188 63.851562 " clip-rule="nonzero"/></clipPath><clipPath id="33471e94af"><path d="M 0.246094 0.683594 L 64.324219 0.683594 L 64.324219 63.421875 L 0.246094 63.421875 Z M 0.246094 0.683594 " clip-rule="nonzero"/></clipPath><clipPath id="9f9fa2f07d"><path d="M 0.371094 31.851562 C 0.371094 27.097656 1.171875 22.796875 2.765625 18.964844 C 4.359375 15.132812 6.574219 11.867188 9.402344 9.183594 C 12.226562 6.5 15.589844 4.425781 19.480469 2.964844 C 23.371094 1.503906 27.613281 0.78125 32.199219 0.78125 C 36.847656 0.78125 41.128906 1.511719 45.050781 2.964844 C 48.972656 4.417969 52.355469 6.492188 55.210938 9.183594 C 58.066406 11.875 60.292969 15.132812 61.890625 18.964844 C 63.484375 22.796875 64.28125 27.097656 64.28125 31.851562 C 64.28125 36.503906 63.484375 40.738281 61.890625 44.578125 C 60.292969 48.417969 58.066406 51.71875 55.210938 54.484375 C 52.355469 57.25 48.964844 59.414062 45.050781 60.949219 C 41.136719 62.484375 36.847656 63.261719 32.199219 63.261719 C 27.605469 63.261719 23.371094 62.492188 19.480469 60.949219 C 15.589844 59.40625 12.226562 57.25 9.402344 54.484375 C 6.574219 51.71875 4.359375 48.410156 2.765625 44.578125 C 1.171875 40.746094 0.371094 36.503906 0.371094 31.851562 M 11.875 31.851562 C 11.875 35.042969 12.367188 37.972656 13.34375 40.628906 C 14.320312 43.28125 15.722656 45.601562 17.542969 47.554688 C 19.359375 49.507812 21.515625 51.042969 24.003906 52.128906 C 26.496094 53.21875 29.253906 53.769531 32.28125 53.769531 C 35.304688 53.769531 38.070312 53.226562 40.589844 52.128906 C 43.109375 51.035156 45.28125 49.511719 47.101562 47.554688 C 48.917969 45.59375 50.320312 43.28125 51.296875 40.628906 C 52.273438 37.972656 52.765625 35.042969 52.765625 31.851562 C 52.765625 28.773438 52.273438 25.917969 51.296875 23.289062 C 50.320312 20.65625 48.925781 18.359375 47.136719 16.398438 C 45.347656 14.4375 43.191406 12.902344 40.671875 11.777344 C 38.152344 10.652344 35.359375 10.101562 32.28125 10.101562 C 29.199219 10.101562 26.414062 10.660156 23.921875 11.777344 C 21.433594 12.894531 19.285156 14.4375 17.496094 16.398438 C 15.707031 18.359375 14.320312 20.65625 13.335938 23.289062 C 12.351562 25.917969 11.867188 28.773438 11.867188 31.851562 " clip-rule="nonzero"/></clipPath><clipPath id="4b1b373784"><rect x="0" width="65" y="0" height="64"/></clipPath><clipPath id="7ee4cf9e96"><path d="M 452.167969 33.433594 L 506.355469 33.433594 L 506.355469 94.613281 L 452.167969 94.613281 Z M 452.167969 33.433594 " clip-rule="nonzero"/></clipPath><clipPath id="c23dfd6956"><path d="M 452.3125 33.480469 L 466.714844 33.480469 L 495.097656 79.195312 L 495.269531 79.195312 L 495.269531 33.480469 L 506.136719 33.480469 L 506.136719 94.550781 L 492.339844 94.550781 L 463.355469 47.371094 L 463.183594 47.371094 L 463.183594 94.550781 L 452.3125 94.550781 Z M 452.3125 33.480469 " clip-rule="nonzero"/></clipPath><clipPath id="1fa9fb7b8f"><path d="M 0.285156 0.433594 L 54.199219 0.433594 L 54.199219 61.613281 L 0.285156 61.613281 Z M 0.285156 0.433594 " clip-rule="nonzero"/></clipPath><clipPath id="2a677acfcd"><path d="M 0.3125 0.480469 L 14.714844 0.480469 L 43.097656 46.195312 L 43.269531 46.195312 L 43.269531 0.480469 L 54.136719 0.480469 L 54.136719 61.550781 L 40.339844 61.550781 L 11.355469 14.371094 L 11.183594 14.371094 L 11.183594 61.550781 L 0.3125 61.550781 Z M 0.3125 0.480469 " clip-rule="nonzero"/></clipPath><clipPath id="b6a8e9375f"><rect x="0" width="55" y="0" height="62"/></clipPath><clipPath id="7479eae418"><path d="M 513.554688 33.480469 L 554.003906 33.480469 L 554.003906 42.972656 L 513.554688 42.972656 Z M 513.554688 42.972656 L 524.425781 42.972656 L 524.425781 58.5 L 513.554688 58.5 Z M 513.554688 58.5 L 552.453125 58.5 L 552.453125 67.640625 L 513.554688 67.640625 Z M 513.554688 67.640625 L 524.425781 67.640625 L 524.425781 84.890625 L 513.554688 84.890625 Z M 513.554688 84.890625 L 555.5625 84.890625 L 555.5625 94.550781 L 513.554688 94.550781 Z M 513.554688 84.890625 " clip-rule="nonzero"/></clipPath><clipPath id="f6c13c0f52"><path d="M 0.554688 0.480469 L 41.003906 0.480469 L 41.003906 9.972656 L 0.554688 9.972656 Z M 0.554688 9.972656 L 11.425781 9.972656 L 11.425781 25.5 L 0.554688 25.5 Z M 0.554688 25.5 L 39.453125 25.5 L 39.453125 34.640625 L 0.554688 34.640625 Z M 0.554688 34.640625 L 11.425781 34.640625 L 11.425781 51.890625 L 0.554688 51.890625 Z M 0.554688 51.890625 L 42.5625 51.890625 L 42.5625 61.550781 L 0.554688 61.550781 Z M 0.554688 51.890625 " clip-rule="nonzero"/></clipPath><clipPath id="96e8b25413"><rect x="0" width="43" y="0" height="62"/></clipPath></defs><g clip-path="url(#41e8674801)"><g clip-path="url(#89786e0641)"><g transform="matrix(1, 0, 0, 1, 23, 21)"><g clip-path="url(#b3652131d7)"><g clip-path="url(#4fc7d06368)"><g clip-path="url(#f055124c7f)"><rect x="-153.185" width="852.12" fill="#05e801" height="237.600003" y="-57.3" fill-opacity="1"/></g></g></g></g></g></g><g clip-path="url(#505ef81203)"><g clip-path="url(#2e80b2572a)"><g transform="matrix(1, 0, 0, 1, 58, 21)"><g clip-path="url(#53a1f7744d)"><g clip-path="url(#3cabca0c58)"><g clip-path="url(#8d231d5039)"><rect x="-188.185" width="852.12" fill="#05e801" height="237.600003" y="-57.3" fill-opacity="1"/></g></g></g></g></g></g><g clip-path="url(#c7fa68c5ad)"><g clip-path="url(#747b5465a7)"><g transform="matrix(1, 0, 0, 1, 23, 66)"><g clip-path="url(#bc4545c2f4)"><g clip-path="url(#0dadf06850)"><g clip-path="url(#2c504d84d2)"><rect x="-153.185" width="852.12" fill="#05e801" height="237.600003" y="-102.3" fill-opacity="1"/></g></g></g></g></g></g><g clip-path="url(#4e48c82778)"><g clip-path="url(#58c1469c6f)"><g transform="matrix(1, 0, 0, 1, 68, 54)"><g clip-path="url(#189ea7e523)"><g clip-path="url(#fc6f134032)"><g clip-path="url(#fce0544265)"><rect x="-198.185" width="852.12" fill="#05e801" height="237.600003" y="-90.3" fill-opacity="1"/></g></g></g></g></g></g><g clip-path="url(#c472d4cfa6)"><g clip-path="url(#18464e740f)"><g transform="matrix(1, 0, 0, 1, 26, 49)"><g clip-path="url(#29b3433f51)"><g clip-path="url(#71b84c1ffa)"><g clip-path="url(#8ea6f2dc56)"><rect x="-156.185" width="852.12" fill="#05e801" height="237.600003" y="-85.3" fill-opacity="1"/></g></g></g></g></g></g><g clip-path="url(#09413760cf)"><g clip-path="url(#5284737190)"><g transform="matrix(1, 0, 0, 1, 23, 18)"><g clip-path="url(#7be5a74ef1)"><g clip-path="url(#d8a1a2d8dc)"><g clip-path="url(#80c4f72eb8)"><rect x="-153.185" width="852.12" fill="#05e801" height="237.600003" y="-54.3" fill-opacity="1"/></g></g></g></g></g></g><g clip-path="url(#f97261c804)"><g clip-path="url(#63a0f3ec47)"><g transform="matrix(1, 0, 0, 1, 82, 18)"><g clip-path="url(#233ab743ee)"><g clip-path="url(#fefb39be65)"><g clip-path="url(#cf07265c03)"><rect x="-212.185" width="852.12" fill="#05e801" height="237.600003" y="-54.3" fill-opacity="1"/></g></g></g></g></g></g><g clip-path="url(#525d37554e)"><g transform="matrix(1, 0, 0, 1, 229, 120)"><g clip-path="url(#e67423b4a2)"><g clip-path="url(#a731969d48)"><rect x="-359.185" width="852.12" fill="#1e1e1c" height="237.600003" y="-156.3" fill-opacity="1"/></g></g></g></g><g clip-path="url(#ed680f364e)"><g clip-path="url(#7b5d9b371a)"><g transform="matrix(1, 0, 0, 1, 240, 120)"><g clip-path="url(#34def63953)"><g clip-path="url(#0608eb22cf)"><g clip-path="url(#c67c62fe77)"><rect x="-370.185" width="852.12" fill="#1e1e1c" height="237.600003" y="-156.3" fill-opacity="1"/></g></g></g></g></g></g><g clip-path="url(#4ee0ab9c64)"><g clip-path="url(#7c094d4ace)"><g transform="matrix(1, 0, 0, 1, 271, 120)"><g clip-path="url(#11caa47442)"><g clip-path="url(#7acadd504b)"><g clip-path="url(#6446207870)"><rect x="-401.185" width="852.12" fill="#1e1e1c" height="237.600003" y="-156.3" fill-opacity="1"/></g></g></g></g></g></g><g clip-path="url(#e7fc9d3697)"><g clip-path="url(#8e517c82b8)"><g transform="matrix(1, 0, 0, 1, 293, 119)"><g clip-path="url(#6de49fe718)"><g clip-path="url(#3c2f5ba5b3)"><g clip-path="url(#3e38574214)"><rect x="-423.185" width="852.12" fill="#1e1e1c" height="237.600003" y="-155.3" fill-opacity="1"/></g></g></g></g></g></g><g clip-path="url(#a88ab6cd53)"><g clip-path="url(#840482f39e)"><g transform="matrix(1, 0, 0, 1, 325, 120)"><g clip-path="url(#10b787c253)"><g clip-path="url(#82b04ea015)"><g clip-path="url(#a84cc05c84)"><rect x="-455.185" width="852.12" fill="#1e1e1c" height="237.600003" y="-156.3" fill-opacity="1"/></g></g></g></g></g></g><g clip-path="url(#12ce2b8b7d)"><g transform="matrix(1, 0, 0, 1, 346, 120)"><g clip-path="url(#60a4f5d1d4)"><g clip-path="url(#48ee7b810f)"><rect x="-476.185" width="852.12" fill="#1e1e1c" height="237.600003" y="-156.3" fill-opacity="1"/></g></g></g></g><g clip-path="url(#dde643e0f3)"><g clip-path="url(#8a3b994a11)"><g transform="matrix(1, 0, 0, 1, 366, 120)"><g clip-path="url(#599c8a7667)"><g clip-path="url(#1a0b3d6337)"><g clip-path="url(#0fae649352)"><rect x="-496.185" width="852.12" fill="#1e1e1c" height="237.600003" y="-156.3" fill-opacity="1"/></g></g></g></g></g></g><g clip-path="url(#d0f49b4a5f)"><g clip-path="url(#0624eb3709)"><g transform="matrix(1, 0, 0, 1, 394, 120)"><g clip-path="url(#435888347c)"><g clip-path="url(#623905f123)"><g clip-path="url(#a9e3f0ed51)"><rect x="-524.185" width="852.12" fill="#1e1e1c" height="237.600003" y="-156.3" fill-opacity="1"/></g></g></g></g></g></g><g clip-path="url(#58699148e4)"><g clip-path="url(#65a130a199)"><g transform="matrix(1, 0, 0, 1, 420, 119)"><g clip-path="url(#0ef554fa53)"><g clip-path="url(#47f4d7ff25)"><g clip-path="url(#a7f85297cd)"><rect x="-550.185" width="852.12" fill="#1e1e1c" height="237.600003" y="-155.3" fill-opacity="1"/></g></g></g></g></g></g><g clip-path="url(#5861d5c4df)"><g clip-path="url(#6e86043884)"><g transform="matrix(1, 0, 0, 1, 449, 119)"><g clip-path="url(#6827a96272)"><g clip-path="url(#343fb30753)"><g clip-path="url(#b36bb4621d)"><rect x="-579.185" width="852.12" fill="#1e1e1c" height="237.600003" y="-155.3" fill-opacity="1"/></g></g></g></g></g></g><g clip-path="url(#f01e0c6912)"><g clip-path="url(#30608538f7)"><g transform="matrix(1, 0, 0, 1, 129, 33)"><g clip-path="url(#c4a397fde5)"><g clip-path="url(#7496c36437)"><g clip-path="url(#53ba62fa3f)"><rect x="-259.185" width="852.12" fill="#1e1e1c" height="237.600003" y="-69.3" fill-opacity="1"/></g></g></g></g></g></g><g clip-path="url(#a8a8cc2365)"><g clip-path="url(#9e85bc77d8)"><g transform="matrix(1, 0, 0, 1, 558, 28)"><g clip-path="url(#1d26772d98)"><g clip-path="url(#3a4c41ba1a)"><g clip-path="url(#c2c0a6e8f2)"><rect x="-688.185" width="852.12" fill="#05e801" height="237.600003" y="-64.3" fill-opacity="1"/></g></g></g></g></g></g><g clip-path="url(#4b4a12a229)"><g clip-path="url(#0b777ab156)"><g transform="matrix(1, 0, 0, 1, 336, 33)"><g clip-path="url(#b5f905659c)"><g clip-path="url(#2772ad9c02)"><g clip-path="url(#e2cf02cf58)"><rect x="-466.185" width="852.12" fill="#05e801" height="237.600003" y="-69.3" fill-opacity="1"/></g></g></g></g></g></g><g clip-path="url(#db66974210)"><g clip-path="url(#15fd043f26)"><g transform="matrix(1, 0, 0, 1, 382, 32)"><g clip-path="url(#4b1b373784)"><g clip-path="url(#33471e94af)"><g clip-path="url(#9f9fa2f07d)"><rect x="-512.185" width="852.12" fill="#05e801" height="237.600003" y="-68.3" fill-opacity="1"/></g></g></g></g></g></g><g clip-path="url(#7ee4cf9e96)"><g clip-path="url(#c23dfd6956)"><g transform="matrix(1, 0, 0, 1, 452, 33)"><g clip-path="url(#b6a8e9375f)"><g clip-path="url(#1fa9fb7b8f)"><g clip-path="url(#2a677acfcd)"><rect x="-582.185" width="852.12" fill="#05e801" height="237.600003" y="-69.3" fill-opacity="1"/></g></g></g></g></g></g><g clip-path="url(#7479eae418)"><g transform="matrix(1, 0, 0, 1, 513, 33)"><g clip-path="url(#96e8b25413)"><g clip-path="url(#f6c13c0f52)"><rect x="-643.185" width="852.12" fill="#05e801" height="237.600003" y="-69.3" fill-opacity="1"/></g></g></g></g></svg>